<?xml version="1.0" encoding="utf-8"?>
<!-- Generator: Adobe Illustrator 17.1.0, SVG Export Plug-In . SVG Version: 6.00 Build 0)  -->
<!DOCTYPE svg PUBLIC "-//W3C//DTD SVG 1.1//EN" "http://www.w3.org/Graphics/SVG/1.1/DTD/svg11.dtd">
<svg version="1.1" id="Layer_1" xmlns="http://www.w3.org/2000/svg" xmlns:xlink="http://www.w3.org/1999/xlink" x="0px" y="0px"
	 viewBox="0 0 36 36" enable-background="new 0 0 36 36" xml:space="preserve">
<path fill="#BF3F4F" d="M28.5,6h-4.2v2.9h-1.7V6h-3.9v2.9h-1.7V6h-3.9v2.9h-1.7V6H7.5C6.7,6,6,6.7,6,7.5v20.9C6,29.3,6.7,30,7.5,30
	h20.9c0.9,0,1.5-0.7,1.5-1.5v-21C30,6.7,29.3,6,28.5,6z M27.6,17.4H8.3v-4h19.3V17.4z M8.3,27.7v-4h19.3v4H8.3z M8.3,22.5v-3.8h19.3
	v3.8H8.3z"/>
</svg>
