<?xml version="1.0" encoding="utf-8"?>
<!-- Generator: Adobe Illustrator 17.1.0, SVG Export Plug-In . SVG Version: 6.00 Build 0)  -->
<!DOCTYPE svg PUBLIC "-//W3C//DTD SVG 1.1//EN" "http://www.w3.org/Graphics/SVG/1.1/DTD/svg11.dtd">
<svg version="1.1"
	 id="svg2" xmlns:svg="http://www.w3.org/2000/svg" xmlns:rdf="http://www.w3.org/1999/02/22-rdf-syntax-ns#" xmlns:dc="http://purl.org/dc/elements/1.1/" xmlns:inkscape="http://www.inkscape.org/namespaces/inkscape" xmlns:sodipodi="http://sodipodi.sourceforge.net/DTD/sodipodi-0.dtd" xmlns:cc="http://creativecommons.org/ns#" sodipodi:docname="Twitter bird.svg" inkscape:version="0.48.2 r9819"
	 xmlns="http://www.w3.org/2000/svg" xmlns:xlink="http://www.w3.org/1999/xlink" x="0px" y="0px" viewBox="0 0 36 36"
	 enable-background="new 0 0 36 36" xml:space="preserve">
<sodipodi:namedview  showgrid="false" borderopacity="1.0" inkscape:zoom="0.49497475" fit-margin-top="0" inkscape:cx="-261.61877" inkscape:cy="293.32818" pagecolor="#ffffff" fit-margin-left="0" bordercolor="#666666" inkscape:pageopacity="0.0" inkscape:pageshadow="2" inkscape:window-y="-4" inkscape:current-layer="layer1" inkscape:window-x="-4" fit-margin-bottom="0" inkscape:window-maximized="1" inkscape:window-height="744" fit-margin-right="0" inkscape:document-units="px" inkscape:window-width="1280" id="base">
	</sodipodi:namedview>
<g id="layer1" transform="translate(-282.07284,-395.84327)" inkscape:label="Layer 1" inkscape:groupmode="layer">
	<g id="g2989" transform="matrix(0.125,0,0,-0.125,280.82284,538.26355)">
		<path id="path2991" inkscape:connector-curvature="0" fill="#BF3F4F" d="M186,1085.4c-20-7.2-32.6-25.8-31.2-46.1l0.5-7.8l-8,1
			c-29.1,3.7-54.6,16.2-76.2,37.1L60.5,1080l-2.7-7.7c-5.8-17.1-2.1-35.2,9.9-47.4c6.4-6.7,5-7.7-6.1-3.7c-3.8,1.3-7.2,2.2-7.5,1.8
			c-1.1-1.1,2.7-15.7,5.8-21.4c4.2-8,12.6-15.8,21.9-20.5l7.8-3.7l-9.3-0.2c-9,0-9.3-0.2-8.3-3.5c3.2-10.4,15.8-21.4,29.9-26.2
			l9.9-3.4l-8.6-5.1c-12.8-7.4-27.8-11.5-42.9-11.8c-7.2-0.2-13.1-0.8-13.1-1.3c0-1.6,19.5-10.6,30.9-14.1
			c34.1-10.4,74.6-5.9,105,11.8c21.6,12.6,43.2,37.8,53.3,62.1c5.4,13,10.9,36.6,10.9,48c0,7.4,0.5,8.3,9.4,17.1
			c5.3,5.1,10.2,10.7,11.2,12.3c1.6,3,1.4,3-6.7,0.3c-13.6-4.8-15.5-4.2-8.8,3c5,5.1,10.9,14.4,10.9,17.1c0,0.5-2.4-0.3-5.1-1.8
			c-2.9-1.6-9.3-4-14.1-5.4l-8.6-2.7l-7.8,5.3c-4.3,2.9-10.4,6.1-13.6,7C205.8,1088.3,193.3,1088,186,1085.4z"/>
	</g>
</g>
</svg>
