<?xml version="1.0" encoding="utf-8"?>
<!-- Generator: Adobe Illustrator 17.1.0, SVG Export Plug-In . SVG Version: 6.00 Build 0)  -->
<!DOCTYPE svg PUBLIC "-//W3C//DTD SVG 1.1//EN" "http://www.w3.org/Graphics/SVG/1.1/DTD/svg11.dtd">
<svg version="1.1" id="Layer_1" xmlns="http://www.w3.org/2000/svg" xmlns:xlink="http://www.w3.org/1999/xlink" x="0px" y="0px"
	 viewBox="0 0 36 36" enable-background="new 0 0 36 36" xml:space="preserve">
<path fill="#BF3F4F" d="M28.5,6h-21C6.7,6,6,6.7,6,7.5v20.9C6,29.3,6.7,30,7.5,30h20.9c0.9,0,1.5-0.7,1.5-1.5v-21
	C30,6.7,29.3,6,28.5,6z M26.4,18.3h-2.7v9.9h-4.1v-9.9h-2v-3.4h2v-2.1c0-2.8,1.2-4.4,4.4-4.4h2.7v3.4H25c-1.3,0-1.4,0.5-1.4,1.4v1.7
	h3.1L26.4,18.3z"/>
</svg>
