<?xml version="1.0" encoding="utf-8"?>
<!-- Generator: Adobe Illustrator 17.1.0, SVG Export Plug-In . SVG Version: 6.00 Build 0)  -->
<!DOCTYPE svg PUBLIC "-//W3C//DTD SVG 1.1//EN" "http://www.w3.org/Graphics/SVG/1.1/DTD/svg11.dtd">
<svg version="1.1" id="Layer_1" xmlns="http://www.w3.org/2000/svg" xmlns:xlink="http://www.w3.org/1999/xlink" x="0px" y="0px"
	 viewBox="0 0 1800 640" enable-background="new 0 0 1800 640" xml:space="preserve">
<g>
	<g>
		<g>
			<path fill="#BF3F4F" d="M493.2,348.3L551.7,559c-13.3,8.8-30.8,11.2-52,7l-10.6-39.2l-54.4,6.7l-13.5,39.6
				c-21.8,2.9-38-0.2-48.6-9.2l76.7-213.8C464.8,340.3,479.3,339.8,493.2,348.3z M468.2,418.1l-23,72l35.6-4.3L468.2,418.1z"/>
			<path fill="#BF3F4F" d="M602.8,352.8c48.6-4.5,82.6-5.2,101.9-2c19.3,3.2,31.5,12.2,36.9,26.8c5.2,14.6,5.4,34.4,0.7,59
				c-4.9,24.8-22.9,41-54.2,49l51.8,67c-9.5,19.3-25.6,25.4-48.1,18.5l-51.3-74.5l-17.1,1.8l-6.8,69.3c-20,7-36,5.4-47.9-4.7
				l18.5-200.2L602.8,352.8z M633.6,393.8l-6.3,60.5c40.3-2.7,62.8-9.9,67.7-21.4c4.9-11.5,5-22,0.7-31.5
				C691.4,391.8,670.7,389.3,633.6,393.8z"/>
			<path fill="#BF3F4F" d="M820.6,353.1l69.7,118.1l7-115.4c14.9-7.4,29.5-7.2,43.4,0.4l-12.6,208.6c-9.9,9-23.6,10.1-40.7,3.2
				l-65.3-119.3l-8.5,119.7c-21.1,5.4-36.9,4.1-47.5-3.6l12.6-205.6C785.5,349.7,799.6,347.5,820.6,353.1z"/>
			<path fill="#BF3F4F" d="M984.6,351.1c14.8-3.4,30.8-2.7,48.1,2.2l-17.3,215.3c-20,5.6-36.7,4.9-50.6-2.2L984.6,351.1z"/>
			<path fill="#BF3F4F" d="M1243.4,351.1l-83.3,214.9c-17.5,7.9-34,8.1-49.9,0.4L1057.1,351c18.2-3.1,36.4-3.1,54.9,0l27.9,153.9
				l47.7-153.9C1205.6,348.3,1224.2,348.3,1243.4,351.1z"/>
			<path fill="#BF3F4F" d="M1339.9,349.3c26.8,0,48.2,10.4,63.9,31.5c15.8,21.1,22.3,47.5,19.3,79.7c-2.9,32.2-13.7,58.7-32.2,79.6
				c-18.5,20.9-41.4,31.3-68.4,31.3s-49.1-10.1-66.4-30.6c-17.3-20.3-24.5-46.4-21.6-78.3c2.9-31.9,14.4-58.7,34.7-80.5
				C1289.5,360.1,1313.1,349.3,1339.9,349.3z M1335.8,404.4c-13-0.2-24.5,5-34.7,15.5s-16.6,24.5-18.7,41.9s1.4,31.9,10.8,43.2
				c9.4,11.3,20.7,16.7,34,16.2c13.3-0.7,24.3-6.3,33.3-17.3c9-10.8,14.2-24.5,15.7-40.9c1.4-16.4-1.6-30.2-9.4-41.6
				C1359,410.2,1348.7,404.6,1335.8,404.4z"/>
			<path fill="#BF3F4F" d="M1463.6,352.8c48.6-4.5,82.6-5.2,101.9-2c19.3,3.2,31.5,12.2,36.9,26.8c5.2,14.6,5.4,34.4,0.7,59
				c-4.9,24.8-22.9,41-54.2,49l51.8,67c-9.5,19.3-25.6,25.4-48.1,18.5l-51.5-74.5l-17.1,1.8l-6.8,69.3c-20,7-36,5.4-47.9-4.7
				l18.5-200.2L1463.6,352.8z M1494.5,393.8l-6.3,60.5c40.3-2.7,62.8-9.9,67.7-21.4s5-22,0.7-31.5
				C1552.3,391.8,1531.6,389.3,1494.5,393.8z"/>
			<path fill="#BF3F4F" d="M1781.8,349.3c4.9,15.3,4,29.7-2.5,43l-95.8,3.1l-2.7,37.4l78.7-1.6c7.4,14.2,6.7,27.7-1.8,40.3
				l-80.1,3.4l-4,45.4l98.3-2.9c8.1,17.3,7,33.5-3.4,48.6l-136.8,5.4c-4.1-0.7-6.8-3.8-7.7-9.2l13.1-200.7c1.1-3.8,3.4-6.5,6.8-8.3
				L1781.8,349.3z"/>
		</g>
		<g>
			<path fill="#353959" d="M341.5,516.2c-13.1,1.4-75.1-7.6-86.8-76.5c-8.6-51.3,57.2-87.7,94.7-103.7l-29-8.6l-206.6,32.8l-56,94.7
				l146.9,84.8L341.5,516.2z"/>
			<g>
				<polygon fill="#FFFFFF" points="354.4,335.1 334.4,387.7 304.7,355.6 287.6,390.6 254.3,365 239.2,393.8 206.5,376.2 
					192.4,406.4 156.6,390.7 188.1,359.2 296.5,338.2 				"/>
				<path fill="#353959" d="M354.4,335.1l-19.8,52.4l-29.7-32l-17.1,34.9L254.3,365l-15.1,28.8l-32.8-17.6l-14,30.1l-35.8-15.5
					l31.5-31.5L296.5,338L354.4,335.1 M363.1,328.8l-9,0.5l-58,3.1h-0.4h-0.4L187,353.7l-1.8,0.4l-1.3,1.3l-31.7,31.3l-6.1,6.1
					l8.1,3.4l35.8,15.5l5.4,2.3l2.5-5.2l11.3-24.3l27.2,14.6l5.2,2.9l2.9-5.4l11.9-22.5l27.9,21.2l5.8,4.3l3.2-6.5l13.3-27.2
					l23.8,25.6l6.5,7l3.4-9l19.8-52.4L363.1,328.8L363.1,328.8z"/>
			</g>
			<g>
				<polygon fill="#FFFFFF" points="154.6,495.7 198.4,485.1 212.6,515.5 240.8,489.6 259.7,516.6 286.4,483.3 306,507.6 333.2,469 
					354.4,503.4 253.6,588.2 				"/>
				<path fill="#353959" d="M333.2,469l21.2,34.2L253.6,588l-99-92.5l43.7-10.8l14,30.6l28.3-25.9l18.9,27l26.6-33.3l19.6,24.3
					L333.2,469 M333.5,458.4l-5.2,7.4l-22.7,32l-14.8-18.2l-4.7-5.8l-4.7,5.8l-21.6,27.2l-14.4-20.5l-4-5.6l-5,4.5l-22.3,20.3
					l-10.6-23.2l-2-4.5l-4.7,1.1l-43.7,10.8l-10.6,2.7l8.1,7.6l99,92.5l3.8,3.6l4-3.4l100.8-84.8l4-3.2l-2.7-4.3l-21.2-34.2
					L333.5,458.4L333.5,458.4z"/>
			</g>
			<path fill="#BF3F4F" d="M246.1,511.9c-49.9,2.9-93.2-29-97.9-61.4C133.9,350.2,328.3,379,366.1,342
				c21.6-21.2-63-108.2-179.3-92.5c-108.2,14.8-204.1,112-176,217.4c26.1,97.9,109.6,140,208.8,140c107.8,0,166.9-97.4,147.6-109.6
				C344.5,482.7,299.3,509,246.1,511.9z"/>
			<g>
				
					<ellipse transform="matrix(-0.555 -0.8319 0.8319 -0.555 51.5921 646.7299)" fill="#FFFFFF" cx="198.8" cy="309.6" rx="27.4" ry="22.3"/>
				
					<ellipse transform="matrix(0.555 0.8319 -0.8319 0.555 353.1927 -30.3521)" fill="#353959" cx="205" cy="314.9" rx="15.5" ry="14.4"/>
			</g>
			<g>
				
					<ellipse transform="matrix(-0.555 -0.8319 0.8319 -0.555 179.8015 684.0051)" fill="#FFFFFF" cx="272.9" cy="293.9" rx="27.4" ry="22.3"/>
				
					<ellipse transform="matrix(0.555 0.8319 -0.8319 0.555 373.2476 -98.8889)" fill="#353959" cx="279" cy="299.4" rx="15.5" ry="14.4"/>
			</g>
		</g>
	</g>
	<g>
		<path fill="#353959" d="M450.2,41.5c46.3-4.3,78.7-5,97-1.8c18.4,3.2,30.1,11.7,35.1,25.6s5,33.7,0.4,59.2
			c-4.7,25.6-22,42.1-51.8,49.5l-45.2,10.4l-16.4,1.8l-6.3,59.9c-19.1,6.7-34.2,5.2-45.5-4.5l17.6-190.6L450.2,41.5z M479.5,80.4
			L473,144c38.3-2.5,59.9-10.4,64.8-23.4s5-23.9,0.9-32.9C534.6,78.8,514.8,76.3,479.5,80.4z"/>
		<path fill="#353959" d="M632.3,98.8l39.1,140.6c-9,5.9-20.5,7.4-34.7,4.7l-7-26.1l-36.2,4.5l-9,26.3c-14.6,2-25.4-0.2-32.4-6.1
			L603.2,100C613.4,93.6,623.2,93,632.3,98.8z M615.6,145.2l-15.3,48.1l23.8-2.9L615.6,145.2z"/>
		<path fill="#353959" d="M703.4,101.8c32.4-3.1,55.1-3.4,67.9-1.3c13,2.2,21.1,8.1,24.5,17.8s3.6,22.9,0.4,39.4
			s-15.3,27.4-36.2,32.6l34.6,44.6c-6.3,12.8-17.1,16.9-32,12.4l-34.2-49.7l-11.3,1.1l-4.5,46.1c-13.3,4.7-23.9,3.6-31.9-3.1
			L693,108.3L703.4,101.8z M724,129l-4.1,40.3c26.8-1.8,41.9-6.7,45.2-14.2c3.2-7.7,3.4-14.8,0.5-21.1
			C762.5,127.8,748.6,126.1,724,129z"/>
		<path fill="#353959" d="M916.7,99.7c4.5,10.4,4.1,20.9-0.7,31.3l-36,0.5l-5.2,113.4c-9.9,4.1-20.7,4.1-32.6-0.2l6.3-112l-35.5,0.7
			c-7.2-12.2-7.6-22.5-0.9-31L916.7,99.7z"/>
		<path fill="#353959" d="M918.4,192.9c-1.8-12.6-0.4-25.4,4.1-38.5h79.6c1.1,13.1-0.4,25.9-4.1,38.5H918.4z"/>
		<path fill="#353959" d="M1146.1,38.5c6.5,14.9,6.1,29.7-1.1,44.8l-51.5,0.7l-7.6,162.2c-14,6.1-29.5,5.9-46.4-0.4l9-160l-50.6,1.1
			c-10.3-17.5-10.8-32.2-1.3-44.3L1146.1,38.5z"/>
		<path fill="#353959" d="M1119.8,100.8c9.9-2.3,20.5-1.8,32,1.4l-11.5,143.5c-13.3,3.8-24.5,3.2-33.7-1.4L1119.8,100.8z"/>
		<path fill="#353959" d="M1205.3,101.8l22.7,81.9l40.1-82.1c9.4-2.3,18.4-2.5,27.2-0.2l-8.8,144.7l-31.7,0.4l4-69.3l-29.9,67.9
			c-4.9,2.5-9.4,1.6-13.1-2.7l-16-65.7l-5.2,70.2l-31.5-0.4l9.9-144.7C1181,98.1,1191.8,98.1,1205.3,101.8z"/>
		<path fill="#353959" d="M1411.7,99.5c3.2,10.3,2.7,19.8-1.6,28.6l-63.9,2l-1.8,25l52.4-1.1c4.9,9.5,4.5,18.5-1.1,27l-53.5,2.2
			l-2.7,30.2l65.5-2c5.4,11.5,4.7,22.3-2.2,32.4l-91.3,3.6c-2.9-0.5-4.5-2.5-5.2-6.1l8.8-133.7c0.7-2.5,2.2-4.3,4.5-5.4L1411.7,99.5
			z"/>
	</g>
</g>
</svg>
