<?xml version="1.0" encoding="utf-8"?>
<!-- Generator: Adobe Illustrator 17.1.0, SVG Export Plug-In . SVG Version: 6.00 Build 0)  -->
<!DOCTYPE svg PUBLIC "-//W3C//DTD SVG 1.1//EN" "http://www.w3.org/Graphics/SVG/1.1/DTD/svg11.dtd">
<svg version="1.1" id="Layer_1" xmlns="http://www.w3.org/2000/svg" xmlns:xlink="http://www.w3.org/1999/xlink" x="0px" y="0px"
	 viewBox="0 0 960 100" enable-background="new 0 0 960 100" xml:space="preserve">
<g>
	<g>
		<path fill="#353959" d="M61.4,15.5c16.3-1.7,27.7-1.7,34.1-0.6c6.4,1.1,10.5,4.2,12.2,8.9s1.7,12,0.2,20.8
			c-1.7,8.9-7.8,14.6-18.3,17.5l-15.5,3.6l-5.9,0.6l-2.1,21.1c-6.6,2.2-12,2-16.1-1.7l6.3-66.8L61.4,15.5z M71.8,29l-2.2,22.4
			c13.6-0.9,21-3.6,22.7-8.3c1.7-4.4,1.7-8.3,0.2-11.6C91.3,28.5,84.3,27.7,71.8,29z"/>
		<path fill="#353959" d="M125.6,35.5l13.8,49.4c-3,2-7.2,2.4-12.2,1.7l-2.4-9.1l-12.7,1.7l-3.3,9.4c-5,0.6-8.9,0-11.3-2.2l18-50.2
			C119,33.8,122.3,33.5,125.6,35.5z M119.5,52.1L114.2,69l8.3-1.1L119.5,52.1z"/>
		<path fill="#353959" d="M150.6,36.5c11.3-1.1,19.4-1.1,23.8-0.6c4.4,0.6,7.4,2.8,8.6,6.3c1.1,3.3,1.4,8.1,0.2,13.8
			c-1.1,5.9-5.3,9.7-12.7,11.3l12.2,15.8c-2.2,4.4-6.1,5.9-11.3,4.4l-12-17.4l-3.9,0.2l-1.7,16.3c-4.8,1.7-8.3,1.4-11.1-1.1
			l4.4-46.8L150.6,36.5z M157.8,46.2l-1.4,14.2c9.4-0.6,14.6-2.2,15.8-5c1.1-2.8,1.1-5.3,0.2-7.4C171.3,45.7,166.4,45.1,157.8,46.2z
			"/>
		<path fill="#353959" d="M225.7,36c1.7,3.6,1.4,7.2-0.2,11.1h-12.7l-2,39.9c-3.6,1.4-7.2,1.4-11.3,0l2.2-39.3l-12.5,0.2
			c-2.4-4.1-2.8-8.1-0.2-10.8L225.7,36z"/>
		<path fill="#353959" d="M226.1,68.7c-0.6-4.4-0.2-8.9,1.4-13.6h28c0.2,4.8,0,9.1-1.4,13.6H226.1z"/>
		<path fill="#353959" d="M306,14.4c2.2,5.3,2.2,10.5-0.2,15.8l-18,0.2l-2.8,57c-5,2.2-10.5,2.2-16.3,0l3-56.2h-17.5
			c-3.6-6.1-3.9-11.3-0.6-15.5L306,14.4z"/>
		<path fill="#353959" d="M296.8,36.2c3.6-0.9,7.2-0.6,11.3,0.6L304,87.3c-4.8,1.4-8.6,1.1-12-0.6L296.8,36.2z"/>
		<path fill="#353959" d="M327,36.5l8.1,28.8l14.2-28.8c3.3-0.9,6.3-0.9,9.4,0l-3,50.9h-11.1L346,63l-10.5,23.8
			c-1.7,0.9-3.3,0.6-4.8-0.9l-5.5-23l-2,24.7h-11.1l3.3-50.9C318.5,35.5,322.3,35.5,327,36.5z"/>
		<path fill="#353959" d="M399.6,35.7c1.1,3.6,0.9,7-0.6,10l-22.4,0.9l-0.6,8.9l18.3-0.2c1.7,3.3,1.7,6.3-0.2,9.4l-18.8,0.9l-1,10.4
			l23-0.6c2,4.1,1.7,7.8-0.9,11.3l-32.1,1.4c-1.1-0.2-1.7-0.9-2-2.2l3-47.1c0.2-0.9,0.9-1.7,1.7-2L399.6,35.7z"/>
		<path fill="#BF3F4F" d="M551.9,32.8l14.5,51.7c-3.2,2.1-7.5,2.6-12.8,1.8l-2.5-9.6l-13.3,1.8l-3.2,9.6c-5.2,0.7-9.4,0-11.9-2.3
			L541.5,33C544.9,31,548.7,30.8,551.9,32.8z M545.8,50.2l-5.5,17.7l8.7-1.2L545.8,50.2z"/>
		<path fill="#BF3F4F" d="M580.7,34c11.9-1.2,20.3-1.2,25-0.7c4.7,0.9,7.8,2.9,9,6.7c1.2,3.5,1.5,8.5,0.2,14.5
			c-1.2,6-5.5,10.1-13.3,11.9l12.8,16.5c-2.3,4.7-6.4,6.2-11.9,4.7L590,69.3l-4.1,0.2L584,86.6c-5,1.8-8.7,1.4-11.7-1.2l4.7-49.1
			L580.7,34z M588.2,44.1L586.8,59c9.9-0.7,15.3-2.3,16.5-5.2s1.2-5.5,0.2-7.8C602.4,43.6,597.6,43,588.2,44.1z"/>
		<path fill="#BF3F4F" d="M636.2,34.2l17.2,29.1l1.8-28.5c3.8-1.8,7.3-1.8,10.8,0l-3.2,51.4c-2.3,2.3-5.8,2.6-9.9,0.9l-16.2-29.6
			l-2,29.3c-5.2,1.4-9,1.2-11.7-0.9l3.2-50.6C627.5,33.3,630.9,32.8,636.2,34.2z"/>
		<path fill="#BF3F4F" d="M676.6,33.6c3.8-0.9,7.5-0.7,11.9,0.7l-4.3,52.9c-5,1.4-9,1.2-12.5-0.7L676.6,33.6z"/>
		<path fill="#BF3F4F" d="M740.2,33.6l-20.7,53c-4.3,2.1-8.5,2.1-12.2,0l-13.1-53c4.3-0.9,9-0.9,13.3,0l6.9,37.8l11.7-37.8
			C731,32.8,735.3,32.8,740.2,33.6z"/>
		<path fill="#BF3F4F" d="M767.6,33.1c6.7,0,11.9,2.5,15.7,7.8s5.5,11.6,4.7,19.5c-0.7,7.8-3.5,14.5-7.8,19.5
			c-4.7,5.2-10.2,7.6-16.9,7.6s-12.2-2.6-16.2-7.6c-4.3-5-6.2-11.3-5.2-19.2c0.7-7.8,3.5-14.5,8.5-19.8S760.9,33.1,767.6,33.1z
			 M766.4,46.8c-3.2,0-6.2,1.2-8.5,3.8c-2.5,2.5-4.1,6.2-4.7,10.2c-0.7,4.1,0.2,7.8,2.5,10.8c2.3,2.9,5,4.1,8.5,4.1
			c3.2-0.2,6.2-1.4,8.2-4.3c2.3-2.6,3.5-6.2,3.8-10.2c0.2-4.1-0.2-7.5-2.3-10.2C772.3,48.2,769.6,46.8,766.4,46.8z"/>
		<path fill="#BF3F4F" d="M803.7,34c11.9-1.2,20.3-1.2,25-0.7c4.7,0.9,7.8,2.9,9,6.7c1.2,3.5,1.5,8.5,0.2,14.5
			c-1.2,6.2-5.5,10.1-13.3,11.9l12.8,16.5c-2.3,4.7-6.4,6.2-11.9,4.7L813,69.3l-4.1,0.2L807,86.6c-5,1.8-8.7,1.4-11.7-1.2l4.7-49.1
			L803.7,34z M811.2,44.1L809.8,59c9.9-0.7,15.3-2.3,16.5-5.2s1.2-5.5,0.2-7.8C825.5,43.6,820.2,43,811.2,44.1z"/>
		<path fill="#BF3F4F" d="M884.4,33.1c1.2,3.8,0.9,7.3-0.7,10.5l-23.5,0.9l-0.7,9.3l19.2-0.2c1.8,3.5,1.8,6.7-0.2,9.9l-19.8,0.9
			l-0.9,11l24.1-0.7c2,4.3,1.8,8.2-0.9,11.9l-33.7,1.5c-1.2-0.2-1.8-0.9-2-2.3l3.2-49.5c0.2-0.9,0.9-1.8,1.8-2L884.4,33.1z"/>
	</g>
</g>
<g>
	<path fill="#353959" d="M515,74.1c-3.2,0.2-18.6-1.8-21.3-18.9c-2-12.5,14-21.6,23.3-25.6l-6.9-2l-50.9,8.3L445.5,59l36.1,20.9
		L515,74.1z"/>
	<g>
		<polygon fill="#FFFFFF" points="468.5,43.2 476.8,34.8 503.9,29.6 519.4,28.8 513.5,43.8 506.3,35.7 502.2,44.1 493.7,38 
			490.3,45 482.1,40.7 478.9,48 		"/>
		<path fill="#353959" d="M518.2,29.6l-5,12.8l-7.3-7.9l-4.1,8.7l-8.2-6.4l-3.8,6.9l-8.2-4.3l-3.5,7.3l-8.7-3.8l7.8-7.8l26.8-5.2
			L518.2,29.6 M520.5,27.9h-2.3L504,28.8l0,0l0,0L477.2,34h-0.6l-0.2,0.2l-7.8,7.8l-1.5,1.5l2,0.9l8.7,3.8l1.1,0.7l0.6-1.2l2.9-6.1
			l6.6,3.5l1.1,0.7l0.9-0.9l2.9-5.5l6.9,5.2l1.5,1.2l0.9-1.8l3.2-6.7l5.8,6.4l1.8,1.8l1-2.5l5-12.8L520.5,27.9L520.5,27.9z"/>
	</g>
	<g>
		<polygon fill="#FFFFFF" points="467.6,68.6 480.4,65.4 483.6,72.6 490.6,66.2 494.9,72.9 501.6,64.8 506.3,70.6 513.2,61 
			519.4,70.9 493.5,92.7 		"/>
		<path fill="#353953" d="M513,62.5l5.3,8.5l-24.8,20.9L469,69.1l10.8-2.6l3.5,7.6l6.9-6.4l4.6,6.7l6.6-8.2l5,6.2L513,62.5
			 M513.2,59.8l-1.1,1.8l-5.5,7.8l-3.8-4.3l-1.1-1.5l-1.1,1.5l-5.3,6.7l-3.5-5l-0.9-1.4l-1.1,1.2l-5.5,5l-2.5-5.8l-0.6-1.2l-1.1,0.2
			l-10.9,2.6l-2.5,0.7l2,1.8l24.5,22.7l0.9,0.9l0.9-0.9l24.7-20.9l0.9-0.9l-0.6-1.2l-5.2-8.5L513.2,59.8L513.2,59.8z"/>
	</g>
	<path fill="#BF3F4F" d="M491.7,72.9c-12.2,0.7-23-7.3-24.1-15.1c-3.5-24.7,44.2-17.5,53.5-26.8c5.2-5.2-15.4-26.8-44.2-22.7
		c-26.8,3.4-50.2,27.6-43.4,53.5c6.4,24.1,27,34.3,51.4,34.3c26.5,0,41-23.8,36.2-27.1C515.8,65.7,504.8,72.3,491.7,72.9z"/>
	<g>
		
			<ellipse transform="matrix(-0.8319 0.555 -0.555 -0.8319 891.7265 -224.0649)" fill="#FFFFFF" cx="479.8" cy="23" rx="5.6" ry="6.7"/>
		
			<ellipse transform="matrix(0.8319 -0.555 0.555 0.8319 67.3495 271.4805)" fill="#353959" cx="481.7" cy="24.6" rx="3.5" ry="3.8"/>
	</g>
	<g>
		
			<ellipse transform="matrix(-0.8319 0.555 -0.555 -0.8319 923.2012 -241.6451)" fill="#FFFFFF" cx="498.2" cy="19" rx="5.6" ry="6.7"/>
		<ellipse transform="matrix(0.8319 -0.555 0.555 0.8319 72.63 280.7082)" fill="#353959" cx="499.6" cy="20.5" rx="3.5" ry="3.8"/>
	</g>
</g>
</svg>
