<?xml version="1.0" encoding="utf-8"?>
<!-- Generator: Adobe Illustrator 17.1.0, SVG Export Plug-In . SVG Version: 6.00 Build 0)  -->
<!DOCTYPE svg PUBLIC "-//W3C//DTD SVG 1.1//EN" "http://www.w3.org/Graphics/SVG/1.1/DTD/svg11.dtd">
<svg version="1.1" id="Layer_1" xmlns="http://www.w3.org/2000/svg" xmlns:xlink="http://www.w3.org/1999/xlink" x="0px" y="0px"
	 viewBox="0 0 960 340" enable-background="new 0 0 960 340" xml:space="preserve">
<g>
	<g>
		<g>
			<path fill="#BF3F4F" d="M267.8,184.8l30.5,109.9c-6.9,4.6-16.1,5.8-27.1,3.7l-5.5-20.5l-28.4,3.5l-7,20.7
				c-11.4,1.5-19.8-0.1-25.4-4.8l40-111.5C252.9,180.6,260.5,180.3,267.8,184.8z M254.7,221.2l-12,37.6l18.6-2.2L254.7,221.2z"/>
			<path fill="#BF3F4F" d="M324.9,187.1c25.4-2.3,43.1-2.7,53.2-1s16.4,6.4,19.3,14c2.7,7.6,2.8,17.9,0.4,30.8
				c-2.6,12.9-11.9,21.4-28.3,25.6l27,35c-5,10.1-13.4,13.3-25.1,9.7l-26.8-38.9l-8.9,0.9l-3.5,36.2c-10.4,3.7-18.8,2.8-25-2.5
				l9.7-104.5L324.9,187.1z M341,208.5l-3.3,31.6c21-1.4,32.8-5.2,35.3-11.2c2.6-6,2.6-11.5,0.4-16.4
				C371.2,207.5,360.4,206.2,341,208.5z"/>
			<path fill="#BF3F4F" d="M438.6,187.3l36.4,61.6l3.7-60.2c7.8-3.9,15.4-3.8,22.6,0.2l-6.6,108.8c-5.2,4.7-12.3,5.3-21.2,1.7
				l-34.1-62.2l-4.4,62.5c-11,2.8-19.3,2.1-24.8-1.9l6.6-107.3C420.3,185.5,427.6,184.3,438.6,187.3z"/>
			<path fill="#BF3F4F" d="M524.1,186.2c7.7-1.8,16.1-1.4,25.1,1.1l-9,112.3c-10.4,2.9-19.1,2.6-26.4-1.1L524.1,186.2z"/>
			<path fill="#BF3F4F" d="M659.2,186.2l-43.5,112.1c-9.1,4.1-17.7,4.2-26,0.2L562,186.2c9.5-1.6,19-1.6,28.6,0l14.6,80.3l24.9-80.3
				C639.4,184.8,649.1,184.8,659.2,186.2z"/>
			<path fill="#BF3F4F" d="M709.5,185.3c14,0,25.1,5.4,33.3,16.4s11.6,24.8,10.1,41.6s-7.1,30.6-16.8,41.5s-21.6,16.3-35.7,16.3
				c-14.1,0-25.6-5.3-34.6-16c-9-10.6-12.8-24.2-11.3-40.9s7.5-30.6,18.1-42C683.2,190.9,695.5,185.3,709.5,185.3z M707.4,214
				c-6.8-0.1-12.8,2.6-18.1,8.1s-8.7,12.8-9.8,21.9c-1.1,9.1,0.7,16.6,5.6,22.5c4.9,5.9,10.8,8.7,17.7,8.5c6.9-0.4,12.7-3.3,17.4-9
				c4.7-5.6,7.4-12.8,8.2-21.3c0.7-8.6-0.8-15.8-4.9-21.7C719.5,217.1,714.1,214.1,707.4,214z"/>
			<path fill="#BF3F4F" d="M774.1,187.1c25.4-2.3,43.1-2.7,53.2-1c10.1,1.7,16.4,6.4,19.3,14c2.7,7.6,2.8,17.9,0.4,30.8
				c-2.6,12.9-11.9,21.4-28.3,25.6l27,35c-5,10.1-13.4,13.3-25.1,9.7l-26.9-38.9l-8.9,0.9l-3.5,36.2c-10.4,3.7-18.8,2.8-25-2.5
				l9.7-104.5L774.1,187.1z M790.2,208.5l-3.3,31.6c21-1.4,32.8-5.2,35.3-11.2c2.6-6,2.6-11.5,0.4-16.4
				C820.3,207.5,809.5,206.2,790.2,208.5z"/>
			<path fill="#BF3F4F" d="M940.1,185.3c2.6,8,2.1,15.5-1.3,22.4l-50,1.6l-1.4,19.5l41.1-0.8c3.9,7.4,3.5,14.5-0.9,21l-41.8,1.8
				l-2.1,23.7L935,273c4.2,9,3.7,17.5-1.8,25.4l-71.4,2.8c-2.1-0.4-3.5-2-4-4.8l6.8-104.7c0.6-2,1.8-3.4,3.5-4.3L940.1,185.3z"/>
		</g>
		<g>
			<path fill="#353959" d="M188.6,272.4c-6.8,0.7-39.2-4-45.3-39.9c-4.5-26.8,29.8-45.8,49.4-54.1l-15.1-4.5L69.8,191l-29.2,49.4
				l76.6,44.2L188.6,272.4z"/>
			<g>
				<polygon fill="#FFFFFF" points="195.3,177.9 184.9,205.3 169.4,188.6 160.5,206.8 143.1,193.5 135.2,208.5 118.2,199.3 
					110.8,215.1 92.1,206.9 108.6,190.5 165.1,179.5 				"/>
				<path fill="#353959" d="M195.3,177.9L185,205.2l-15.5-16.7l-8.9,18.2l-17.5-13.3l-7.9,15l-17.1-9.2l-7.3,15.7l-18.7-8.1
					l16.4-16.4l56.6-11.1L195.3,177.9 M199.9,174.6l-4.7,0.3l-30.3,1.6h-0.2h-0.2L108,187.6l-0.9,0.2l-0.7,0.7l-16.5,16.3l-3.2,3.2
					l4.2,1.8l18.7,8.1l2.8,1.2l1.3-2.7l5.9-12.7l14.2,7.6l2.7,1.5l1.5-2.8l6.2-11.7l14.6,11.1l3,2.2l1.7-3.4l6.9-14.2l12.4,13.4
					l3.4,3.7l1.8-4.7l10.3-27.3L199.9,174.6L199.9,174.6z"/>
			</g>
			<g>
				<polygon fill="#FFFFFF" points="91.1,261.7 113.9,256.1 121.4,272 136.1,258.5 145.9,272.6 159.9,255.2 170.1,267.9 
					184.3,247.7 195.3,265.7 142.7,309.9 				"/>
				<path fill="#353959" d="M184.3,247.7l11.1,17.8l-52.6,44.2l-51.7-48.3l22.8-5.6l7.3,16l14.8-13.5l9.9,14.1l13.9-17.4l10.2,12.7
					L184.3,247.7 M184.4,242.2l-2.7,3.9l-11.8,16.7l-7.7-9.5l-2.5-3l-2.5,3L146,267.5l-7.5-10.7l-2.1-2.9l-2.6,2.3l-11.6,10.6
					l-5.5-12.1l-1-2.3l-2.5,0.6l-22.8,5.6l-5.5,1.4l4.2,4l51.7,48.3l2,1.9l2.1-1.8l52.6-44.2l2.1-1.7l-1.4-2.2l-11.1-17.8
					L184.4,242.2L184.4,242.2z"/>
			</g>
			<path fill="#BF3F4F" d="M138.8,270.1c-26,1.5-48.6-15.1-51.1-32c-7.5-52.3,94-37.3,113.7-56.6c11.3-11.1-32.9-56.5-93.5-48.3
				c-56.5,7.7-106.5,58.4-91.8,113.4c13.6,51.1,57.2,73,108.9,73c56.2,0,87.1-50.8,77-57.2C190.2,254.9,166.6,268.6,138.8,270.1z"/>
			<g>
				
					<ellipse transform="matrix(0.8319 -0.555 0.555 0.8319 -72.1181 91.0509)" fill="#FFFFFF" cx="114.2" cy="164.5" rx="11.6" ry="14.3"/>
				
					<ellipse transform="matrix(-0.8319 0.555 -0.555 -0.8319 308.0103 241.4625)" fill="#353959" cx="117.4" cy="167.4" rx="7.5" ry="8.1"/>
			</g>
			<g>
				
					<ellipse transform="matrix(0.8319 -0.555 0.555 0.8319 -61.0707 111.0981)" fill="#FFFFFF" cx="152.8" cy="156.3" rx="11.6" ry="14.3"/>
				
					<ellipse transform="matrix(-0.8319 0.555 -0.555 -0.8319 374.2617 205.0957)" fill="#353959" cx="156.1" cy="159.2" rx="7.5" ry="8.1"/>
			</g>
		</g>
	</g>
	<g>
		<path fill="#353959" d="M245.3,24.7c24.2-2.2,41.1-2.6,50.6-0.9c9.6,1.7,15.7,6.1,18.3,13.4s2.6,17.6,0.2,30.9
			c-2.5,13.4-11.5,22-27,25.8l-23.6,5.4l-8.6,0.9l-3.3,31.3c-10,3.5-17.8,2.7-23.7-2.3l9.2-99.4L245.3,24.7z M260.6,45l-3.4,33.2
			c20-1.3,31.3-5.4,33.8-12.2c2.6-6.8,2.6-12.5,0.5-17.2C289.4,44.2,279,42.9,260.6,45z"/>
		<path fill="#353959" d="M340.3,54.6l20.4,73.4c-4.7,3.1-10.7,3.9-18.1,2.5l-3.7-13.6l-18.9,2.3l-4.7,13.7
			c-7.6,1-13.3-0.1-16.9-3.2l26.7-74.5C330.5,51.9,335.6,51.6,340.3,54.6z M331.6,78.8l-8,25.1l12.4-1.5L331.6,78.8z"/>
		<path fill="#353959" d="M377.4,56.2c16.9-1.6,28.7-1.8,35.4-0.7c6.8,1.1,11,4.2,12.8,9.3s1.9,11.9,0.2,20.6
			c-1.7,8.6-8,14.3-18.9,17l18.1,23.3c-3.3,6.7-8.9,8.8-16.7,6.5l-17.8-25.9l-5.9,0.6l-2.3,24.1c-6.9,2.5-12.5,1.9-16.6-1.6
			l6.4-69.6L377.4,56.2z M388.2,70.3l-2.1,21c14-0.9,21.9-3.5,23.6-7.4c1.7-4,1.8-7.7,0.3-11C408.3,69.7,401,68.8,388.2,70.3z"/>
		<path fill="#353959" d="M488.7,55.1c2.3,5.4,2.1,10.9-0.4,16.3l-18.8,0.3l-2.7,59.2c-5.2,2.1-10.8,2.1-17-0.1l3.3-58.4l-18.5,0.4
			c-3.8-6.4-4-11.7-0.5-16.2L488.7,55.1z"/>
		<path fill="#353959" d="M489.6,103.7c-0.9-6.6-0.2-13.3,2.1-20.1h41.5c0.6,6.8-0.2,13.5-2.1,20.1H489.6z"/>
		<path fill="#353959" d="M608.4,23.1c3.4,7.8,3.2,15.5-0.6,23.4L581,46.9l-4,84.6c-7.3,3.2-15.4,3.1-24.2-0.2l4.7-83.5l-26.4,0.6
			c-5.4-9.1-5.6-16.8-0.7-23.1L608.4,23.1z"/>
		<path fill="#353959" d="M594.7,55.6c5.2-1.2,10.7-0.9,16.7,0.7l-6,74.9c-6.9,2-12.8,1.7-17.6-0.7L594.7,55.6z"/>
		<path fill="#353959" d="M639.3,56.2l11.8,42.7L672,56.1c4.9-1.2,9.6-1.3,14.2-0.1l-4.6,75.5l-16.5,0.2l2.1-36.2l-15.6,35.4
			c-2.6,1.3-4.9,0.8-6.8-1.4l-8.3-34.3l-2.7,36.6l-16.4-0.2l5.2-75.5C626.6,54.2,632.2,54.2,639.3,56.2z"/>
		<path fill="#353959" d="M747,55c1.7,5.4,1.4,10.3-0.8,14.9l-33.3,1l-0.9,13l27.3-0.6c2.6,5,2.3,9.7-0.6,14.1l-27.9,1.1l-1.4,15.8
			l34.2-1c2.8,6,2.5,11.6-1.1,16.9l-47.6,1.9c-1.5-0.3-2.3-1.3-2.7-3.2l4.6-69.8c0.4-1.3,1.1-2.2,2.3-2.8L747,55z"/>
	</g>
</g>
</svg>
