<?xml version="1.0" encoding="utf-8"?>
<!-- Generator: Adobe Illustrator 17.1.0, SVG Export Plug-In . SVG Version: 6.00 Build 0)  -->
<!DOCTYPE svg PUBLIC "-//W3C//DTD SVG 1.1//EN" "http://www.w3.org/Graphics/SVG/1.1/DTD/svg11.dtd">
<svg version="1.1" id="Layer_1" xmlns="http://www.w3.org/2000/svg" xmlns:xlink="http://www.w3.org/1999/xlink" x="0px" y="0px"
	 viewBox="0 0 1800 600" enable-background="new 0 0 1800 600" xml:space="preserve">
<g>
	<g id="XMLID_1_">
		<g>
			<path fill="#AAAAAA" stroke="#999999" stroke-miterlimit="10" d="M1682,209.2c2.6,6.3,4.2,10.5,4.2,11.6
				c0,6.4-25.3,12.7-36.6,19.7c-11.2,7-29.5,21.1-33.8,21.1c-1.4,0-5.5-4.2-10.6-9.8c0,0,11.2-10.3,35.2-23.9
				C1664.4,214.4,1682,209.2,1682,209.2z"/>
			<path fill="#AAAAAA" stroke="#999999" stroke-miterlimit="10" d="M1682,209.2c0,0-17.6,5.1-41.5,18.7
				c-23.9,13.6-35.2,23.9-35.2,23.9c-10.7-11.8-25.6-30.3-28.1-30.3c0,0,4.2-25.1,7-39.6c2.8-14.4,0.9-20.2,10.8-42.7
				s23.6-41.4,23.6-41.4C1637.8,117,1670.4,182.2,1682,209.2z"/>
			<path fill="#AAAAAA" stroke="#999999" stroke-miterlimit="10" d="M1618.7,97.9c0,0-13.9,18.9-23.6,41.4
				c-9.8,22.5-8,28.1-10.8,42.7s-7,39.6-7,39.6c-3.8,0-12.7,54.8-12.7,97.8s4.9,84.4,8.4,147c2.1,37.6,2.6,61.5,2.2,75.2
				c-0.8,0.2-40.2,10.3-141.8,10.3s-141.1-9.7-141.9-9.8c-0.2-12.8,0.8-34.4,2.4-67.2c2.8-54.8,5.6-175.1,5.6-197.6
				s-6.4-53.9-9.2-53.4l-0.5-1.9c0,0-1.4-61.9-6.6-86.2s-18.7-40.2-18.7-40.2c0.4-0.4,0.8-0.7,1.1-1c22.5-20.4,35.2-18.9,60.5-28.1
				c15.4-5.5,31.8-14.8,44.2-22.3l2,1.1c-2,1.3-4,3.8-3.3,8.1c1.4,7.5,24.4,44.1,76.4,44.1s68.4-38,69.4-43.1s-6.1-10.3-6.1-10.3
				l0.8-1.5c8.8,5.2,18.9,12.4,31,17C1561,66.9,1595.2,74.3,1618.7,97.9z"/>
			<path fill="#AAAAAA" stroke="#999999" stroke-miterlimit="10" d="M1575.2,541.5c-0.3,9.1-1.1,13.7-2.2,14.8
				c-4.7,4.7-32.3,13.3-135.8,13.3c-103.3,0-139.9-6.2-144.1-12.7c-1.1-1.7-1.7-6.4-1.8-15c0.8,0.2,40.3,9.8,141.9,9.8
				C1535,551.8,1574.4,541.8,1575.2,541.5z"/>
			<path fill="#AAAAAA" stroke="#999999" stroke-miterlimit="10" d="M1372.3,45.1l-2-1.1c6.8-4.1,12.4-7.7,16-9.8
				c-1.5,1.1-3.2,3.3-2.3,7.2c1.4,7,17.3,36.6,58.1,36.6c41.5,0,56-21.8,57.7-32.8c0.8-5.2-1.5-8.3-4.1-9.3c4.3,1,8.8,3.5,13.9,6.4
				l-0.8,1.5c0,0,7,5.2,6.1,10.3s-17.3,43.1-69.4,43.1s-75-36.6-76.4-44.1C1368.3,48.8,1370.4,46.4,1372.3,45.1z"/>
			<path fill="#AAAAAA" stroke="#999999" stroke-miterlimit="10" d="M1495.7,35.8c2.7,0.9,4.9,4.2,4.1,9.3
				c-1.7,11.1-16.1,32.8-57.7,32.8c-40.8,0-56.7-29.5-58.1-36.6c-0.8-3.9,0.8-6.1,2.3-7.2c0.4-0.3,0.8-0.5,1.1-0.7h0.1
				c0.5-0.2,0.8-0.3,1-0.4l0,0c9.9-1.8,21.8,14.8,56.3,13.5c35.8-1.4,36.8-9.8,47.9-11.2c0.4,0,0.8,0.1,1.2,0.2l0,0
				C1494.8,35.6,1495.2,35.7,1495.7,35.8z"/>
			<path fill="#AAAAAA" stroke="#999999" stroke-miterlimit="10" d="M1289.9,221.9l0.5,1.9c-1.9,0.3-15.8,16.4-27.1,27.4l-1.5-1.1
				c-16.4-10.8-26.4-21.8-36.8-27.5s-36.8-18-36.8-18h-1.9c17-28.7,60-91.6,78.4-109.1c0,0,13.5,15.8,18.7,40.2
				S1289.9,221.9,1289.9,221.9z"/>
			<path fill="#AAAAAA" stroke="#999999" stroke-miterlimit="10" d="M1261.8,250l1.5,1.1c-5.5,5.3-10.4,9.5-12.9,9.9
				c-7.7,1.4-18.3-6.4-35.2-18.9c-16.9-12.7-33.8-19-35.9-23.2c-0.5-0.9,2.2-6.3,7-14.3h1.9c0,0,26.5,12.4,36.8,18
				C1235.3,228.2,1245.4,239.2,1261.8,250z"/>
		</g>
		<g>
			<path fill="none" stroke="#999999" stroke-width="3" d="M1387.6,33.5c-0.4,0.2-0.8,0.4-1.1,0.7c-1.5,1.1-3.2,3.3-2.3,7.2
				c1.4,7,17.3,36.6,58.1,36.6c41.5,0,56-21.8,57.7-32.8c0.8-5.2-1.5-8.3-4.1-9.3"/>
			<path fill="#AAAAAA" stroke="#999999" stroke-width="3" d="M1388.8,33C1388.8,33,1388.8,33,1388.8,33L1388.8,33
				c-0.3,0.1-0.7,0.2-1.1,0.4"/>
			<path fill="#AAAAAA" stroke="#999999" stroke-width="3" d="M1289.9,221.9c0,0-1.4-61.9-6.6-86.2s-18.7-40.2-18.7-40.2"/>
			<path fill="#AAAAAA" stroke="#999999" stroke-width="3" d="M1577.3,221.6c0,0,4.2-25.1,7-39.6c2.8-14.4,0.9-20.2,10.8-42.7
				s23.6-41.4,23.6-41.4"/>
			<path fill="none" stroke="#999999" stroke-width="3" d="M1375.2,43.8c0,0-1.4,0.4-2.8,1.3c-2,1.3-4,3.8-3.3,8.1
				c1.4,7.5,24.4,44.1,76.4,44.1s68.4-38,69.4-43.1s-6.1-10.3-6.1-10.3"/>
			<path fill="#AAAAAA" stroke="#999999" stroke-width="3" d="M1188.2,204.6c0,0,26.5,12.4,36.8,18s20.3,16.7,36.8,27.5"/>
			<path fill="#AAAAAA" stroke="#999999" stroke-width="3" d="M1605.3,251.9c0,0,11.2-10.3,35.2-23.9s41.5-18.7,41.5-18.7"/>
			<path fill="#AAAAAA" stroke="#999999" stroke-width="3" d="M1291.4,542.1L1291.4,542.1c0.8,0.2,40.3,9.8,141.9,9.8
				c101.6,0,141.1-10.1,141.8-10.3l0,0"/>
		</g>
	</g>
</g>
<g>
	<g>
		<path fill="#FFFFFF" d="M1345.4,251.1c1.1,2.7,1.8,4.5,1.9,5.7c0.1,1.1-0.1,1.9-0.8,2.5c-0.7,0.6-1.9,1-3.5,1.1
			c-1.6,0.2-2.9-0.5-3.9-2.1l-1.4-2.4l-0.4-1l-3.6,0.7c-0.7-1-1-1.9-0.6-2.8l11.5-2.5L1345.4,251.1z M1343.6,253.7l-3.9,0.8
			c0.8,2.2,1.7,3.3,2.5,3.4c0.8,0,1.4-0.1,1.9-0.6C1344.8,256.8,1344.5,255.6,1343.6,253.7z"/>
		<path fill="#FFFFFF" d="M1350.5,264.5l-10,8c-0.7-0.5-1.3-1.4-1.6-2.7l1.9-1.4l-1.6-2.8l-2.4,0.1c-0.6-1.1-0.8-2.1-0.6-2.8
			l13.3-0.7C1350.2,262.8,1350.6,263.7,1350.5,264.5z M1346.1,264.8l-4.3,0.4l1.1,1.8L1346.1,264.8z"/>
		<path fill="#FFFFFF" d="M1352.7,270c1.6,2.3,2.7,4.1,3,5.1c0.4,1.1,0.2,1.9-0.4,2.7c-0.6,0.7-1.6,1.2-3,1.7c-1.4,0.5-2.8,0-4-1.3
			l-1.9,4.6c-1.2,0.1-2.1-0.6-2.3-1.9l2.3-4.7l-0.6-0.8l-3.7,1.7c-1-0.8-1.3-1.7-1.1-2.5l10.7-4.8L1352.7,270z M1351.5,272.7
			l-3.3,1.4c1.3,1.9,2.3,2.9,3,2.8c0.7-0.1,1.3-0.4,1.6-0.8C1353.2,275.6,1352.7,274.4,1351.5,272.7z"/>
		<path fill="#FFFFFF" d="M1363.2,285.8c-0.5,0.8-1.2,1.3-2.3,1.6l-1.9-2.5l-8.3,5.6c-0.8-0.5-1.3-1.2-1.7-2.3l8.2-5.4l-1.9-2.4
			c0.5-1.1,1.2-1.7,2.2-1.7L1363.2,285.8z"/>
		<path fill="#FFFFFF" d="M1357.9,292.2c0.6-0.7,1.3-1.3,2.3-1.7l4,4.3c-0.6,0.7-1.4,1.2-2.3,1.7L1357.9,292.2z"/>
		<path fill="#FFFFFF" d="M1376,298.3c-0.4,1-1,1.6-1.9,2.1l-2.4-2.1l-7,7.1c-0.8-0.4-1.6-1-2.1-1.9l7-6.9l-2.4-2.1
			c0.2-1.2,0.8-1.9,1.8-2.1L1376,298.3z"/>
		<path fill="#FFFFFF" d="M1377.9,299.8c0.8,0.4,1.6,1,2.2,1.8l-8.3,9.4c-1.1-0.5-1.9-1.1-2.3-1.9L1377.9,299.8z"/>
		<path fill="#FFFFFF" d="M1383.5,303.9l-2.1,7.1l6.8-4.2c0.8,0.2,1.4,0.7,2.1,1.2l-7.4,10.4l-2.4-1.4l3.5-4.9l-5.3,3.6
			c-0.5,0-0.7-0.4-0.8-0.8l1.8-5.7l-3.6,4.9l-2.3-1.4l7.5-10.3C1381.8,302.5,1382.7,303,1383.5,303.9z"/>
		<path fill="#FFFFFF" d="M1399,312.1c-0.1,1-0.5,1.7-1.2,2.2l-5.1-2.3l-1.1,1.9l4.2,1.9c0,1-0.4,1.6-1.1,2.1l-4.3-1.8l-1.3,2.3
			l5.2,2.3c0,1.1-0.5,1.9-1.4,2.4l-7.4-3.1c-0.2-0.1-0.2-0.4-0.1-0.7l5.8-10.3c0.1-0.1,0.4-0.2,0.6-0.2L1399,312.1z"/>
		<path fill="#FFFFFF" d="M1413,318.2c-0.1,1.1-0.6,1.7-1.6,2.1c-0.4-0.5-1.1-1-1.9-1.4c-0.8-0.4-1.7-0.4-2.4,0.1
			c-0.7,0.4-1.3,1.1-1.8,2.1c-0.4,0.5-0.5,1.3-0.4,2.4c0.1,1,0.6,1.7,1.4,1.9c0.8,0.2,1.9,0.5,3.1,0.5c0.1,1-0.1,1.8-0.7,2.5
			c-1.6,0.2-2.8,0.1-3.7-0.2c-1.6-0.7-2.5-1.7-2.9-2.9c-0.6-1.6-0.2-3.5,0.7-5.8c0.8-1.8,1.9-3,3.1-3.6c1.6-0.6,3.1-0.5,4.8,0.2
			C1412,316.5,1412.7,317.3,1413,318.2z"/>
		<path fill="#FFFFFF" d="M1420.2,318.7l0.5,12.8c-0.8,0.4-1.9,0.2-3-0.4l-0.1-2.4l-3.1-0.4l-1.3,2.1c-1.3-0.1-2.2-0.5-2.7-1.2
			l7.2-11.1C1418.6,317.9,1419.5,318,1420.2,318.7z M1417.8,322.3l-2.3,3.7l2.1,0.2L1417.8,322.3z"/>
		<path fill="#FFFFFF" d="M1426,320.2c2.9,0.1,4.8,0.5,5.9,0.8s1.7,1,1.9,1.9c0.2,1,0,2.1-0.5,3.4c-0.5,1.3-1.7,2.2-3.6,2.3l2.4,4.3
			c-0.7,1-1.7,1.2-2.9,0.6l-2.3-4.7h-1l-1.1,4c-1.2,0.2-2.2,0-2.8-0.7l2.9-11.3L1426,320.2z M1427.3,322.8l-1,3.4
			c2.3,0.2,3.7,0,4.1-0.6s0.5-1.2,0.4-1.8C1430.7,323.2,1429.6,322.8,1427.3,322.8z"/>
		<path fill="#FFFFFF" d="M1438.2,321.9l3.5,7.2l1-6.6c1-0.4,1.8-0.2,2.5,0.2l-1.8,12.1c-0.6,0.5-1.4,0.5-2.4,0l-3.3-7.2l-1.1,6.9
			c-1.2,0.2-2.2,0-2.8-0.5l1.8-11.9C1436.3,321.5,1437.1,321.4,1438.2,321.9z"/>
		<path fill="#FFFFFF" d="M1447.1,322.3c0.8-0.1,1.8-0.1,2.8,0.2l-1.6,12.6c-1.2,0.2-2.2,0.2-2.9-0.2L1447.1,322.3z"/>
		<path fill="#FFFFFF" d="M1461.5,322.5l-4.7,12.7c-1,0.5-1.9,0.5-2.9,0.1l-3.3-12.6c1.1-0.2,2.2-0.2,3.3,0l1.8,8.9l2.7-9.1
			C1459.3,322.3,1460.4,322.3,1461.5,322.5z"/>
		<path fill="#FFFFFF" d="M1466.5,321.7c1.6-0.1,2.9,0.2,3.9,1.4c1.1,1.1,1.6,2.7,1.7,4.5c0,1.9-0.4,3.5-1.3,4.8
			c-1,1.3-2.2,2.1-3.7,2.3c-1.6,0.1-2.9-0.2-4.1-1.3c-1.2-1.1-1.7-2.5-1.8-4.3c-0.1-1.8,0.5-3.5,1.4-4.9S1465.1,322,1466.5,321.7z
			 M1466.7,325c-0.7,0.1-1.3,0.5-1.9,1.1c-0.5,0.7-0.8,1.6-0.8,2.5c0,1,0.2,1.8,1,2.4c0.6,0.6,1.3,0.8,2.1,0.7
			c0.7-0.1,1.3-0.5,1.8-1.2c0.5-0.7,0.6-1.6,0.6-2.4c0-1-0.2-1.7-0.8-2.3C1468.1,325.2,1467.5,325,1466.7,325z"/>
		<path fill="#FFFFFF" d="M1474,320.9c2.7-1,4.6-1.4,5.8-1.6c1.1-0.1,1.9,0.2,2.4,1c0.5,0.7,0.8,1.8,0.8,3.4
			c0.1,1.4-0.7,2.7-2.4,3.5l3.9,3c-0.2,1.2-1.1,1.8-2.4,1.7l-4-3.5l-1,0.4l0.6,4c-1.1,0.7-1.9,0.8-2.8,0.4l-1.8-11.6L1474,320.9z
			 M1476.3,322.7l0.5,3.5c2.3-0.7,3.4-1.4,3.5-2.2c0.1-0.7,0-1.3-0.4-1.8C1479.6,321.7,1478.4,322,1476.3,322.7z"/>
		<path fill="#FFFFFF" d="M1491.2,315.2c0.6,0.7,0.8,1.6,0.7,2.4l-5.2,2.2l0.6,2.1l4.2-1.7c0.7,0.6,1,1.3,0.7,2.3l-4.3,1.8l0.7,2.5
			l5.3-2.2c0.8,0.7,1.1,1.7,0.8,2.8l-7.4,3.1c-0.2,0-0.5-0.1-0.6-0.4l-3.4-11.2c0-0.2,0-0.5,0.2-0.6L1491.2,315.2z"/>
	</g>
	<g>
		<path fill="#353959" d="M1507.9,266.8c-5.8,0.7-32.9-3.3-38-33.6c-3.7-22.7,25.2-38.4,41.7-45.3l-12.8-3.7l-90.7,14.3l-24.5,41.7
			l64.3,37.3L1507.9,266.8z"/>
		<g>
			<polygon fill="#FFFFFF" points="1513.7,187.5 1504.9,210.5 1491.8,196.3 1484.5,211.6 1469.8,200.7 1462.9,213.1 1448.6,205.4 
				1442.4,218.6 1426.7,211.6 1440.6,198.1 1488.1,188.6 			"/>
		</g>
		<g>
			<polygon fill="#FFFFFF" points="1426,257.7 1445,253.3 1451.2,266.5 1463.6,255.1 1472,266.8 1483.7,252.6 1492.5,263.2 
				1504.2,246 1513.7,261.4 1469.5,298.3 			"/>
		</g>
		<path fill="#BF3F4F" d="M1466.2,265c-21.9,1.1-40.9-12.8-43.1-27.1c-6.2-43.9,79-31.4,95.8-47.5c9.5-9.1-27.8-47.5-78.6-40.6
			c-47.5,6.6-89.6,49-77.1,95.4c11.3,43.1,48.3,61.4,91.8,61.4c47.2,0,73.1-42.8,64.7-48.3C1509.3,252.2,1489.6,263.5,1466.2,265z"
			/>
		<g>
			
				<ellipse transform="matrix(-0.8319 0.555 -0.555 -0.8319 2745.1501 -479.5425)" fill="#FFFFFF" cx="1445.2" cy="176.1" rx="9.9" ry="12.1"/>
			
				<ellipse transform="matrix(0.8319 -0.555 0.555 0.8319 144.2736 833.5588)" fill="#353959" cx="1447.8" cy="178.7" rx="6.2" ry="6.9"/>
		</g>
		<g>
			
				<ellipse transform="matrix(-0.8319 0.555 -0.555 -0.8319 2800.718 -510.0983)" fill="#FFFFFF" cx="1477.6" cy="169.2" rx="9.9" ry="12.1"/>
			
				<ellipse transform="matrix(0.8319 -0.555 0.555 0.8319 153.5657 850.5197)" fill="#353959" cx="1480.5" cy="171.8" rx="6.2" ry="6.9"/>
		</g>
	</g>
</g>
<g>
	<g>
		<g>
			<g id="XMLID_4_">
				<g>
					<path fill="#363959" d="M1132.1,209.2c2.6,6.3,4.2,10.5,4.2,11.6c0,6.4-25.3,12.7-36.6,19.7c-11.2,7-29.5,21.1-33.8,21.1
						c-1.4,0-5.5-4.2-10.6-9.8c0,0,11.2-10.3,35.2-23.9C1114.6,214.4,1132.1,209.2,1132.1,209.2z"/>
					<path fill="#363959" d="M1132.1,209.2c0,0-17.6,5.1-41.5,18.7c-23.9,13.6-35.2,23.9-35.2,23.9c-10.7-11.8-25.6-30.3-28.1-30.3
						c0,0,4.2-25.1,7-39.6c2.8-14.4,0.9-20.2,10.8-42.7s23.6-41.4,23.6-41.4C1087.9,117,1120.6,182.2,1132.1,209.2z"/>
					<path fill="#363959" d="M1068.8,97.9c0,0-13.9,18.9-23.6,41.4s-8,28.1-10.8,42.7s-7,39.6-7,39.6c-3.8,0-12.7,54.8-12.7,97.8
						s4.9,84.4,8.4,147c2.1,37.6,2.6,61.5,2.2,75.2c-0.8,0.2-40.2,10.3-141.8,10.3s-141.1-9.7-141.9-9.8
						c-0.2-12.8,0.8-34.4,2.4-67.2c2.8-54.8,5.6-175.1,5.6-197.6s-6.4-53.9-9.2-53.4l-0.5-1.9c0,0-1.4-61.9-6.6-86.2
						s-18.7-40.2-18.7-40.2c0.4-0.4,0.8-0.7,1.1-1c22.5-20.4,35.2-18.9,60.5-28.1c15.4-5.5,31.8-14.8,44.2-22.3l2,1.1
						c-2,1.3-4,3.8-3.3,8.1c1.4,7.5,24.4,44.1,76.4,44.1s68.4-38,69.4-43.1s-6.1-10.3-6.1-10.3l0.8-1.5c8.8,5.2,18.9,12.4,31.1,17
						C1011.2,66.9,1045.3,74.3,1068.8,97.9z"/>
					<path fill="#363959" d="M1025.3,541.5c-0.3,9.1-1.1,13.7-2.2,14.8c-4.7,4.7-32.3,13.3-135.8,13.3
						c-103.3,0-139.9-6.2-144.1-12.7c-1.1-1.7-1.7-6.4-1.8-15c0.8,0.2,40.3,9.8,141.9,9.8S1024.5,541.8,1025.3,541.5z"/>
					<path fill="#363959" d="M822.4,45.1l-2-1.1c6.8-4.1,12.4-7.7,16-9.8c-1.6,1.1-3.2,3.3-2.3,7.2c1.4,7,17.3,36.6,58.1,36.6
						s56.7-26.7,57.7-32.8c0.8-5.2-1.5-8.3-4.1-9.3c4.3,1,8.8,3.5,13.9,6.4l-0.8,1.5c0,0,7,5.2,6.1,10.3s-17.3,43.1-69.4,43.1
						s-75-36.6-76.4-44.1C818.4,48.8,820.6,46.4,822.4,45.1z"/>
					<path fill="#363959" d="M945.8,35.8c2.6,0.9,4.9,4.2,4.1,9.3c-0.9,6.1-16.9,32.8-57.7,32.8s-56.7-29.5-58.1-36.6
						c-0.8-3.9,0.8-6.1,2.3-7.2c0.4-0.3,0.8-0.5,1.1-0.7h0.1c0.5-0.2,0.8-0.3,1-0.4l0,0c9.9-1.8,21.7,14.8,56.3,13.5
						c35.8-1.4,36.8-9.8,47.9-11.2c0.4,0,0.8,0.1,1.2,0.2l0,0C944.9,35.6,945.4,35.7,945.8,35.8z"/>
					<path fill="#363959" d="M740,221.9l0.5,1.9c-1.9,0.3-15.8,16.4-27.2,27.4l-1.5-1.1c-16.4-10.8-26.4-21.8-36.7-27.5
						s-36.8-18-36.8-18h-1.9c17-28.7,60-91.6,78.4-109.1c0,0,13.5,15.8,18.7,40.2S740,221.9,740,221.9z"/>
					<path fill="#363959" d="M711.9,250l1.5,1.1c-5.5,5.3-10.4,9.5-12.9,9.9c-7.7,1.4-18.3-6.4-35.2-18.9
						c-16.9-12.7-33.8-19-35.8-23.2c-0.5-0.9,2.2-6.3,7-14.3h1.9c0,0,26.4,12.4,36.7,18C685.4,228.2,695.5,239.2,711.9,250z"/>
				</g>
				<g>
					<path fill="none" stroke="#121830" stroke-width="3" d="M837.7,33.5c-0.4,0.2-0.8,0.4-1.1,0.7c-1.6,1.1-3.2,3.3-2.3,7.2
						c1.4,7,17.3,36.6,58.1,36.6s56.7-26.7,57.7-32.8c0.8-5.2-1.5-8.3-4.1-9.3"/>
					<path fill="none" stroke="#121830" stroke-width="3" d="M838.9,33L838.9,33L838.9,33c-0.3,0.1-0.7,0.2-1.1,0.4"/>
					<path fill="none" stroke="#121830" stroke-width="2" d="M740,221.9c0,0-1.4-61.9-6.6-86.2s-18.7-40.2-18.7-40.2"/>
					<path fill="none" stroke="#121830" stroke-width="2" d="M1027.4,221.6c0,0,4.2-25.1,7-39.6c2.8-14.4,0.9-20.2,10.8-42.7
						s23.6-41.4,23.6-41.4"/>
					<path fill="none" stroke="#121830" stroke-width="2" d="M825.4,43.8c0,0-1.4,0.4-2.8,1.3c-2,1.3-4,3.8-3.3,8.1
						c1.4,7.5,24.4,44.1,76.4,44.1s68.4-38,69.4-43.1s-6.1-10.3-6.1-10.3"/>
					<path fill="none" stroke="#121830" stroke-width="2" d="M638.3,204.6c0,0,26.4,12.4,36.8,18s20.3,16.7,36.7,27.5"/>
					<path fill="none" stroke="#121830" stroke-width="2" d="M1055.4,251.9c0,0,11.2-10.3,35.2-23.9s41.5-18.7,41.5-18.7"/>
					<path fill="none" stroke="#121830" stroke-width="2" d="M741.5,542.1L741.5,542.1c0.8,0.2,40.3,9.8,141.9,9.8
						s141.1-10.1,141.8-10.3l0,0"/>
				</g>
			</g>
		</g>
	</g>
	<g>
		<path fill="#E2DFD1" d="M887.8,140.2c44.7,0,81,36.3,81,81s-36.3,81-81,81s-81-36.3-81-81S843.1,140.2,887.8,140.2 M887.8,137
			c-22.5,0-43.7,8.7-59.5,24.7c-15.9,15.9-24.7,37-24.7,59.5s8.7,43.7,24.7,59.5s37,24.7,59.5,24.7s43.7-8.7,59.5-24.7
			s24.7-37,24.7-59.5s-8.7-43.7-24.7-59.5C931.5,145.8,910.3,137,887.8,137L887.8,137z"/>
		<g>
			<path fill="#E1DFD1" d="M852.3,273.7c-0.6,1-1.4,1.6-2.4,1.6c-0.2-0.7-0.8-1.4-1.5-2.3c-0.8-0.7-1.6-1-2.5-0.9s-1.9,0.6-2.7,1.4
				c-0.7,0.4-1.1,1.2-1.4,2.4c-0.3,1.1,0,2,0.8,2.6c0.8,0.7,1.8,1.3,3.2,1.8c-0.3,1.1-0.8,1.9-1.8,2.3c-1.8-0.5-3-1-3.8-1.7
				c-1.3-1.4-2-2.8-1.9-4.2c0.1-1.9,1.1-3.8,3.2-5.7c1.6-1.5,3.2-2.3,4.8-2.5c1.9,0,3.5,0.7,5,2.2
				C852,271.5,852.4,272.6,852.3,273.7z"/>
			<path fill="#E1DFD1" d="M859.3,276l-3.6,14.1c-1,0.1-2.2-0.4-3.2-1.3l0.7-2.6l-3.4-1.4l-2.1,1.8c-1.3-0.6-2.2-1.2-2.5-2.2
				l11.4-9.8C858,274.6,858.8,275.1,859.3,276z M855.5,279.2l-3.7,3.4l2.2,0.9L855.5,279.2z"/>
			<path fill="#E1DFD1" d="M864,278.6c3.1,0.8,5.2,1.5,6.4,2.2c1.1,0.7,1.7,1.5,1.7,2.5c0,1-0.5,2.2-1.3,3.7
				c-0.8,1.4-2.3,2.1-4.5,1.9l1.8,5.3c-1,1-2.2,1-3.4,0.1l-1.6-5.8l-1.1-0.3l-2,4.1c-1.4,0-2.3-0.5-2.9-1.3l5.6-12.1L864,278.6z
				 M865,281.9l-1.7,3.7c2.5,0.8,4.1,0.8,4.7,0.2c0.6-0.7,0.8-1.2,0.8-2C868.6,283,867.4,282.5,865,281.9z"/>
			<path fill="#E1DFD1" d="M876.8,282.5l3.4,8.4l1.6-7.5c1-0.4,2-0.2,2.8,0.5l-2.9,13.5c-0.8,0.5-1.6,0.5-2.7-0.2l-3.1-8.4l-1.7,7.8
				c-1.4,0.2-2.4-0.1-3.1-0.7l2.8-13.3C874.6,281.9,875.5,281.9,876.8,282.5z"/>
			<path fill="#E1DFD1" d="M886.5,283.3c1-0.2,2.1-0.2,3.2,0.2l-1.4,14.2c-1.3,0.4-2.4,0.3-3.4-0.2L886.5,283.3z"/>
			<path fill="#E1DFD1" d="M902.6,282l-3.6,14.8c-1,0.7-2.2,0.8-3.3,0.5l-5.3-13.7c1.1-0.4,2.3-0.6,3.6-0.5l3.2,9.8l1.8-10.5
				C900.2,282.2,901.4,282,902.6,282z"/>
			<path fill="#E1DFD1" d="M907.8,280.1c1.7-0.6,3.3-0.3,4.7,0.7c1.4,1,2.3,2.5,2.8,4.6s0.3,3.9-0.5,5.6c-0.8,1.7-2,2.8-3.7,3.4
				c-1.7,0.6-3.3,0.4-4.8-0.6c-1.5-0.9-2.4-2.4-2.9-4.5s-0.3-4,0.6-5.8C904.9,281.8,906.1,280.7,907.8,280.1z M908.6,283.7
				c-0.8,0.3-1.4,0.8-1.9,1.7s-0.6,1.9-0.4,3c0.2,1.1,0.8,2,1.6,2.5c0.8,0.6,1.6,0.7,2.4,0.4c0.8-0.3,1.4-0.9,1.8-1.8
				c0.4-0.8,0.4-1.9,0.2-2.9c-0.2-1-0.8-1.9-1.4-2.4C910.2,283.6,909.4,283.4,908.6,283.7z"/>
			<path fill="#E1DFD1" d="M915,277.6c2.6-1.8,4.6-2.9,5.8-3.4c1.2-0.5,2.3-0.3,3,0.4c0.8,0.7,1.4,1.8,2,3.4c0.5,1.6,0,3.1-1.6,4.6
				l5.2,2.2c0.1,1.4-0.7,2.2-2.2,2.6l-5.3-2.7l-0.9,0.7l1.8,4.2c-0.9,1-1.9,1.5-2.9,1.2l-5.3-12.2L915,277.6z M918.1,279l1.6,3.8
				c2.2-1.4,3.4-2.6,3.3-3.4c-0.1-0.8-0.4-1.4-0.9-1.9C921.4,277,920.1,277.6,918.1,279z"/>
			<path fill="#E1DFD1" d="M931.6,266c0.8,0.6,1.4,1.3,1.7,2.3l-4.8,4.2l1.4,2.1l3.9-3.4c0.9,0.4,1.5,1.1,1.6,2.2l-3.9,3.6l1.7,2.4
				l4.9-4.3c1.1,0.6,1.8,1.4,1.9,2.6l-6.8,6c-0.3,0.1-0.5,0.1-0.8-0.2l-7.8-10.8c-0.1-0.3-0.1-0.5,0-0.8L931.6,266z"/>
		</g>
		<g>
			<path fill="#E1DFD1" d="M840,163.1c2.3-2.2,4.1-3.6,5.3-4.1c1.1-0.6,2.2-0.7,3,0c0.8,0.6,1.7,1.7,2.5,3.3
				c0.8,1.6,0.6,3.3-0.8,4.9l-2.1,2.4l-0.8,0.8l2.2,3.6c-0.8,1.1-1.7,1.7-2.7,1.7l-6.9-11.3L840,163.1z M843.3,164.1l2.3,3.8
				c2.1-1.8,2.9-3.1,2.6-4c-0.3-0.9-0.8-1.5-1.3-1.9C846.3,161.7,845,162.4,843.3,164.1z"/>
			<path fill="#E1DFD1" d="M854.4,153.5l10,10.5c-0.5,0.9-1.4,1.6-2.8,2.1l-1.9-2l-3,2.1l0.5,2.7c-1.2,0.8-2.2,1.2-3.1,0.9
				l-2.2-14.9C852.5,153.8,853.4,153.4,854.4,153.5z M855.2,158.2l0.9,4.9l2-1.4L855.2,158.2z"/>
			<path fill="#E1DFD1" d="M863.2,150c3-1.2,5.2-1.9,6.4-2.1c1.3-0.2,2.2,0.2,2.8,1c0.6,0.8,1,2.1,1.1,3.8c0.2,1.7-0.7,3-2.5,4.1
				l4.5,3.3c-0.3,1.4-1.1,2.1-2.7,2.1l-4.7-3.8l-1,0.5l0.8,4.5c-1.1,0.8-2.2,1-3.1,0.6l-2.6-13L863.2,150z M865.9,152l0.8,3.9
				c2.5-0.9,3.8-1.8,3.9-2.6c0.1-0.8-0.1-1.5-0.6-2C869.5,150.8,868.2,151,865.9,152z"/>
			<path fill="#E1DFD1" d="M884.7,145.5c0.6,0.9,0.7,2,0.3,3.1l-3.6,0.5l0.8,11.2c-0.9,0.6-2,0.7-3.2,0.4l-0.7-11.2l-3.5,0.5
				c-0.8-1.1-1-2.2-0.5-3.1L884.7,145.5z"/>
			<path fill="#E1DFD1" d="M886,154.9c-0.1-1,0-2.2,0.4-3.2l6.7,0.1c0.1,1.1-0.1,2.2-0.4,3.2L886,154.9z"/>
			<path fill="#E1DFD1" d="M905,147.3c0.3,1.1,0.1,2.1-0.6,3.1l-3.6-0.5l-2.2,11.1c-1,0.3-2.1,0.1-3.2-0.5l2.3-10.9l-3.5-0.5
				c-0.6-1.3-0.4-2.3,0.4-3.1L905,147.3z"/>
			<path fill="#E1DFD1" d="M908.4,148.4c1,0.1,2,0.4,3,1l-5.1,13.4c-1.4,0-2.4-0.4-3.2-1L908.4,148.4z"/>
			<path fill="#E1DFD1" d="M919,152.2l-1.5,8.3l7.1-5.6c0.9,0.2,1.8,0.6,2.4,1.1l-7,12.6l-2.8-1.3l3.4-6l-5.6,4.8
				c-0.6,0-0.9-0.3-1-0.8l1.4-6.6l-3.5,6l-2.8-1.4l7.1-12.5C916.9,150.8,918,151.3,919,152.2z"/>
			<path fill="#E1DFD1" d="M938.2,164.1c-0.4,1-1,1.7-1.9,2.2l-5.2-3.7l-1.7,1.9l4.2,3.1c-0.2,1-0.8,1.7-1.7,2.1l-4.3-3l-2.1,2.2
				l5.2,3.8c-0.3,1.2-0.9,2.1-2.2,2.4l-7.4-5.3c-0.2-0.2-0.2-0.5,0-0.8l8.7-10c0.2-0.2,0.5-0.2,0.7-0.2L938.2,164.1z"/>
		</g>
		<g>
			<polygon fill="#363959" points="858,161.8 855.2,158.2 856,163.2 			"/>
		</g>
		<g>
			<path fill="#E1DFD1" d="M881.1,215.8"/>
			<path fill="#E1DFD1" d="M881.1,215.8l3.8,1.7l2.1-4.5C884.9,213.7,882.8,214.6,881.1,215.8z"/>
			<path fill="#E1DFD1" d="M896.9,210.8l5.1,3.8l0.5-0.9l2-4l0,0c-2.8,0.5-5.8,0.8-8.8,1.3"/>
			<path fill="#E1DFD1" d="M881.5,232c1.8,1.5,4,2.6,6.5,3.4l-1.9-4l-4.1,1C881.8,232.3,881.6,232.2,881.5,232z"/>
			<path fill="#E1DFD1" d="M905.7,234.2c-0.4,0.1-0.8,0.2-1.2,0.3l-2.7-3.4l-3.8,4.7C900.7,235.4,903.3,234.8,905.7,234.2z"/>
			<path fill="#E1DFD1" d="M901.9,201.6c1.8-1.2,2.1-4,0.6-6.2c-1.5-2.2-4.1-3-6-1.9c-1.8,1.2-2.1,4-0.6,6.2
				C897.5,201.9,900.2,202.8,901.9,201.6z M898.9,196.2c1.1-0.8,2.8-0.4,3.7,0.8c0.8,1.2,0.6,2.9-0.6,3.7c-1.1,0.8-2.8,0.4-3.7-0.8
				C897.4,198.7,897.7,197,898.9,196.2z"/>
			<path fill="#E1DFD1" d="M910.2,214.1l2.3-6.3l0,0c-1.9,0.7-4.1,1.1-6.7,1.6L910.2,214.1z"/>
			<path fill="#E1DFD1" d="M888.8,204.3c1.8-1.2,2.1-4,0.6-6.2c-1.5-2.2-4.1-3-6-1.9c-1.8,1.2-2.1,4-0.6,6.2
				C884.3,204.7,887,205.5,888.8,204.3z M885.7,198.9c1.1-0.8,2.8-0.4,3.7,0.8c0.8,1.2,0.6,2.9-0.6,3.7c-1.1,0.8-2.8,0.4-3.7-0.8
				C884.3,201.4,884.5,199.8,885.7,198.9z"/>
			<path fill="#E1DFD1" d="M893.3,215.2l2.3-4.2c-2.4,0.4-4.9,0.9-7.1,1.5L893.3,215.2z"/>
			<path fill="#E1DFD1" d="M896.3,236.1l-2.6-3.8l-3.9,3.7c-0.3-0.1-0.6-0.1-0.8-0.2c1.8,0.5,3.8,0.7,5.7,0.6"/>
			<path fill="#E1DFD1" d="M897.9,235.9"/>
			<path fill="#E1DFD1" d="M887.8,164.5c-31.3,0-56.7,25.4-56.7,56.7s25.4,56.7,56.7,56.7s56.7-25.4,56.7-56.7
				S919.1,164.5,887.8,164.5z M889.9,253c-17.5,0-32.4-7.5-37-24.8c-5-18.8,12-36,31.2-38.6c20.6-2.8,35.6,12.7,31.8,16.4
				c-0.5,0.5-1.1,0.9-1.9,1.2l-2.7,7.2l-0.7,1.6l-1.2-1.3l-4.2-4.5l-2.3,4.8l-0.6,1.2l-1-0.8l-2.1-1.5c-2.3,2.7-3.8,5.8-3.2,9.4
				c0.7,3.7,2.1,6.4,3.8,8.3l1-1.2l0.8-1l0.8,1l2.6,3.2l4-5.6l0.9-1.3l0.8,1.4l3,4.9l0,0c0.8,0.1,1.5,0.3,2.2,0.8
				C919.5,235.8,909,253,889.9,253z"/>
			<path fill="#E1DFD1" d="M912.6,232.8l-2.6-4.2l-3.8,5.4l0,0C908.6,233.4,910.8,232.9,912.6,232.8L912.6,232.8z"/>
		</g>
		<g>
			<path fill="#BF3F4F" d="M916,233.6c-4-2.5-12,2.1-21.5,2.6c-8.8,0.5-16.6-5.2-17.3-10.9c-2.5-17.8,32-12.7,38.6-19.3
				c3.8-3.8-11.2-19.2-31.8-16.4c-19.2,2.6-36.2,19.9-31.2,38.6c4.6,17.3,19.5,24.8,37,24.8C909,253,919.5,235.8,916,233.6z
				 M896.6,193.5c1.8-1.2,4.5-0.4,6,1.9c1.5,2.2,1.2,5-0.6,6.2c-1.8,1.2-4.5,0.4-6-1.9C894.5,197.5,894.8,194.7,896.6,193.5z
				 M883.5,196.2c1.8-1.2,4.5-0.4,6,1.9c1.5,2.2,1.2,5-0.6,6.2c-1.8,1.2-4.5,0.4-6-1.9C881.4,200.2,881.6,197.4,883.5,196.2z"/>
		</g>
	</g>
</g>
<g>
	<path fill="#E1DFD1" d="M569.2,396.1c1.3,3.1,1.3,6.3-0.2,9.4l-10.8,0.2l-1.6,34c-3,1.3-6.2,1.2-9.8-0.1l1.9-33.7l-10.6,0.2
		c-2.2-3.7-2.2-6.8-0.3-9.3L569.2,396.1z"/>
	<path fill="#E1DFD1" d="M575.2,420.5c-0.5-3.2-0.1-6.4,1-9.7h20.1c0.3,3.3-0.1,6.6-1,9.7H575.2z"/>
	<path fill="#E1DFD1" d="M602,435.5c-1.3-4.4-0.6-7.9,2.2-10.3c5.1,2.9,8.6,4.8,11,5.4c4.2,0,6.6-1.1,6.9-3.2
		c0.1-1.7-1.2-3.3-3.8-4.8l-7.5-3.7c-4.7-2.5-7.1-6-7.3-10.6c0.2-2.6,1.1-5,2.7-7c1.6-2.1,3.5-3.5,5.5-4.1s4.5-0.9,7.3-0.7
		c5.2,0.3,9.7,1.8,13.6,4.4c0.2,3.7-1,6.9-3.5,9.7c-4.8-3.6-8.5-5.2-11.4-5c-2.7-0.3-4.1,0.7-4.2,2.9c-0.1,1.3,1.8,2.9,5.6,4.9
		c4.4,1.8,7.7,3.8,9.8,6.2c2.2,2.3,3.1,5.2,2.8,8.4c-0.3,4.5-2.4,8-6.3,10.3c-2.4,1.7-6,2.4-10.7,2.2
		C610.3,439.9,606.1,438.2,602,435.5z"/>
	<path fill="#E1DFD1" d="M648.1,396.9l-0.8,16.4l13.9-0.8l1.1-15.3c3-1.5,5.9-1.4,8.6,0.1l-2,41.7c-3.7,1.8-6.8,1.9-9.5,0.2
		l0.8-17.9l-13.8,0.6l-1,17.9c-4.2,1-7.4,0.8-9.6-0.7l2.5-41.2C641.4,396,644.6,395.6,648.1,396.9z"/>
	<path fill="#E1DFD1" d="M678.3,396.5c3-0.8,6.2-0.6,9.6,0.5l-3.5,43.1c-3.9,1.1-7.3,1-10.1-0.5L678.3,396.5z"/>
	<path fill="#E1DFD1" d="M698.2,396.8c9.8-0.9,16.5-1,20.4-0.4c3.8,0.7,6.3,2.4,7.4,5.3c1,2.9,1.1,6.8,0.1,11.8
		c-0.9,5-4.6,8.2-10.9,9.8l10.4,13.4c-1.9,3.8-5.2,5.1-9.6,3.8l-10.3-14.9l-3.5,0.4l-1.4,13.9c-4,1.4-7.2,1.1-9.6-0.9l3.8-40.1
		L698.2,396.8z M704.3,405l-1.2,12.1c8.1-0.6,12.6-2,13.6-4.3c0.9-2.3,1-4.4,0.2-6.3C715.9,404.6,711.8,404.1,704.3,405z"/>
	<path fill="#E1DFD1" d="M765.2,396.1c1.3,3.1,1.3,6.3-0.2,9.4l-10.8,0.2l-1.6,34c-3,1.3-6.2,1.2-9.8-0.1l1.9-33.7l-10.6,0.2
		c-2.2-3.7-2.3-6.8-0.3-9.3L765.2,396.1z"/>
	<path fill="#E1DFD1" d="M772.5,435.5c-1.3-4.4-0.6-7.9,2.2-10.3c5.1,2.9,8.6,4.8,11,5.4c4.2,0,6.6-1.1,6.9-3.2
		c0.1-1.7-1.2-3.3-3.8-4.8l-7.5-3.7c-4.7-2.5-7.1-6-7.3-10.6c0.2-2.6,1.1-5,2.7-7c1.6-2.1,3.5-3.5,5.5-4.1s4.5-0.9,7.3-0.7
		c5.2,0.3,9.7,1.8,13.6,4.4c0.2,3.7-1,6.9-3.5,9.7c-4.8-3.6-8.5-5.2-11.4-5c-2.7-0.3-4.1,0.7-4.2,2.9c-0.1,1.3,1.8,2.9,5.6,4.9
		c4.4,1.8,7.7,3.8,9.8,6.2s3.1,5.2,2.8,8.4c-0.3,4.5-2.4,8-6.3,10.3c-2.4,1.7-6,2.4-10.7,2.2C780.8,439.9,776.5,438.2,772.5,435.5z"
		/>
	<path fill="#E1DFD1" d="M872.8,400.3c0.7,3.6-0.2,6.4-2.7,8.4c-1.7-1.1-4.4-2-8-2.6c-3.2-0.3-5.8,0.7-7.8,2.8c-2,2.2-3.3,5-3.7,8.4
		c-0.7,2.2-0.3,5,1.2,8.3c1.5,3.1,3.8,4.7,6.8,4.9c3,0.2,6.7-0.4,10.9-1.8c1.5,3,1.7,6,0.5,8.8c-5.1,2.3-9.1,3.4-12.2,3.3
		c-5.7-0.8-9.9-2.8-12.6-6.3c-3.6-4.6-4.7-11.2-3.6-19.6c0.9-6.7,3-11.7,6.4-15.2c4.3-3.6,9.7-5,15.8-4.3
		C868.1,395.8,871.1,397.4,872.8,400.3z"/>
	<path fill="#E1DFD1" d="M899.2,396.1c5.3,0,9.7,2.1,12.8,6.3c3.2,4.2,4.5,9.6,3.8,15.9c-0.6,6.5-2.7,11.7-6.5,15.9
		s-8.2,6.3-13.7,6.3c-5.4,0-9.8-2.1-13.3-6.1c-3.5-4-4.9-9.3-4.3-15.7c0.6-6.4,2.9-11.7,6.9-16.1C889,398.2,893.8,396.1,899.2,396.1
		z M898.3,407.1c-2.6,0-4.9,1-6.9,3.1c-2.1,2.1-3.3,4.9-3.8,8.3s0.3,6.4,2.2,8.6s4.1,3.4,6.8,3.3s4.9-1.3,6.7-3.5
		c1.8-2.2,2.8-4.9,3.2-8.2c0.3-3.3-0.3-6-1.9-8.3C903,408.3,900.9,407.2,898.3,407.1z"/>
	<path fill="#E1DFD1" d="M932.8,396.8l6.8,24.6l12-24.7c2.8-0.7,5.5-0.7,8.2-0.1l-2.6,43.4l-9.6,0.1l1.2-20.8l-9,20.4
		c-1.5,0.8-2.8,0.5-3.9-0.8l-4.8-19.8l-1.6,21.1l-9.5-0.1l3-43.5C925.5,395.6,928.8,395.6,932.8,396.8z"/>
	<path fill="#E1DFD1" d="M967.1,396.5c3-0.8,6.2-0.6,9.6,0.5l-3.5,43.1c-3.9,1.1-7.3,1-10.1-0.5L967.1,396.5z"/>
	<path fill="#E1DFD1" d="M991,396.8l14,23.6l1.4-23.1c3-1.5,5.9-1.4,8.6,0.1l-2.5,41.8c-2,1.8-4.7,2-8.2,0.7l-13.1-23.9l-1.7,24
		c-4.2,1-7.4,0.8-9.6-0.8l2.5-41.2C984,396.1,986.8,395.7,991,396.8z"/>
	<path fill="#E1DFD1" d="M1050.5,415.9c1.1,0.7,2,1.5,2.4,2.7l-1.1,13.9c-2,3.5-4.4,5.8-7.3,7.1c-2.6,1.1-5.3,1.8-8.2,1.8
		c-4.9,0-8.8-1.6-11.7-4.7c-4-4.4-5.8-10.8-5.2-19c0.6-8,3.2-13.9,7.8-17.7c3.8-2.5,8.2-3.8,13.4-3.8c2.8,0,5.2,0.3,6.9,0.9
		c1.8,0.6,3.7,1.9,5.7,3.8c0.2,3.5-0.7,6.3-2.5,8.4l-3-1.3c-2.3-1.4-4.9-2.1-7.7-2.1c-3.8,0.1-6.5,0.9-8.2,2.5
		c-1.7,1.6-2.8,5-3.2,9.8c-0.4,4.2,0,7.4,1.1,9.6c1,3.1,3.5,4.5,7.2,4.3c4-0.5,6.2-1.9,6.6-4.3l0.2-3l-6.1-0.1
		c-1.8-3.5-1.4-6.6,0.9-9.2L1050.5,415.9z"/>
	<path fill="#E1DFD1" d="M1092,435.5c-1.3-4.4-0.6-7.9,2.3-10.3c5.1,2.9,8.6,4.8,11,5.4c4.2,0,6.6-1.1,6.9-3.2
		c0.1-1.7-1.2-3.3-3.8-4.8l-7.5-3.7c-4.7-2.5-7.1-6-7.3-10.6c0.2-2.6,1.1-5,2.7-7c1.6-2.1,3.5-3.5,5.5-4.1c2.1-0.7,4.5-0.9,7.3-0.7
		c5.2,0.3,9.7,1.8,13.6,4.4c0.2,3.7-1,6.9-3.5,9.7c-4.8-3.6-8.5-5.2-11.4-5c-2.7-0.3-4.1,0.7-4.2,2.9c-0.1,1.3,1.8,2.9,5.6,4.9
		c4.4,1.8,7.7,3.8,9.8,6.2c2.2,2.3,3.1,5.2,2.8,8.4c-0.3,4.5-2.4,8-6.3,10.3c-2.4,1.7-6,2.4-10.7,2.2
		C1100.3,439.9,1096.1,438.2,1092,435.5z"/>
	<path fill="#E1DFD1" d="M1148,396.1c5.3,0,9.7,2.1,12.8,6.3s4.5,9.6,3.8,15.9c-0.6,6.5-2.7,11.7-6.5,15.9s-8.2,6.3-13.7,6.3
		c-5.4,0-9.8-2.1-13.3-6.1c-3.5-4-4.9-9.3-4.3-15.7c0.6-6.4,2.9-11.7,6.9-16.1C1137.9,398.2,1142.6,396.1,1148,396.1z M1147.1,407.1
		c-2.6,0-4.9,1-6.9,3.1c-2.1,2.1-3.3,4.9-3.8,8.3s0.3,6.4,2.2,8.6s4.1,3.4,6.8,3.3s4.9-1.3,6.7-3.5c1.8-2.2,2.8-4.9,3.2-8.2
		c0.3-3.3-0.3-6-1.9-8.3C1151.8,408.3,1149.8,407.2,1147.1,407.1z"/>
	<path fill="#E1DFD1" d="M1190.8,396.1c5.3,0,9.7,2.1,12.8,6.3c3.2,4.2,4.5,9.6,3.8,15.9c-0.6,6.5-2.7,11.7-6.5,15.9
		s-8.3,6.3-13.7,6.3s-9.8-2.1-13.3-6.1c-3.5-4-4.9-9.3-4.3-15.7c0.6-6.4,2.9-11.7,6.9-16.1C1180.8,398.2,1185.5,396.1,1190.8,396.1z
		 M1190.1,407.1c-2.6,0-4.9,1-6.9,3.1c-2.1,2.1-3.3,4.9-3.8,8.3s0.3,6.4,2.2,8.6s4.1,3.4,6.8,3.3c2.6-0.1,4.9-1.3,6.7-3.5
		s2.8-4.9,3.2-8.2c0.3-3.3-0.3-6-1.9-8.3C1194.7,408.3,1192.6,407.2,1190.1,407.1z"/>
	<path fill="#E1DFD1" d="M1222.7,396.8l14,23.6l1.4-23.1c3-1.5,5.9-1.4,8.6,0.1l-2.5,41.8c-2,1.8-4.7,2-8.2,0.7l-13.1-23.9l-1.7,24
		c-4.2,1-7.4,0.8-9.6-0.8l2.5-41.2C1215.7,396.1,1218.5,395.7,1222.7,396.8z"/>
	<path fill="#E1DFD1" d="M1254.8,429.5c0.8,0,1.6,0.2,2.3,0.7s1.3,1,1.8,1.8c0.5,0.8,0.7,1.6,0.7,2.4c0,0.8-0.2,1.6-0.7,2.3
		c-0.4,0.7-1,1.3-1.8,1.8s-1.6,0.7-2.3,0.7c-0.8,0-1.6-0.2-2.3-0.7c-0.8-0.4-1.3-1-1.8-1.8c-0.4-0.8-0.7-1.6-0.7-2.3
		c0-0.8,0.2-1.7,0.7-2.4c0.5-0.7,1-1.3,1.8-1.8C1253.2,429.7,1254,429.5,1254.8,429.5z M1254.5,395.8l-1.5,30.7
		c1.7,1.1,3.8,1.2,6.3,0.4l5.8-29.6C1262.1,395.2,1258.5,394.7,1254.5,395.8z"/>
</g>
<g>
	<g id="XMLID_5_">
		<g>
			<path fill="#FFFFFF" d="M346.3,78c-40.8,0-56.7-29.5-58.1-36.6c-0.8-3.9,0.8-6.1,2.3-7.2c0.4-0.3,0.8-0.5,1.1-0.7h0.1
				c0.5-0.2,0.8-0.3,1-0.4l0,0c9.9-1.8,21.8,14.8,56.3,13.5c35.8-1.4,36.8-9.8,48-11.2c0.4,0,0.8,0.1,1.2,0.2l0,0
				c0.5,0.1,1,0.2,1.5,0.4c2.6,0.9,4.9,4.2,4.1,9.3C403,51.3,387.1,78,346.3,78z"/>
			<path fill="#FFFFFF" d="M399.9,35.8c4.3,1,8.9,3.5,13.9,6.4l-0.8,1.5c0,0,7,5.2,6.1,10.3s-17.3,43.1-69.4,43.1
				s-75-36.6-76.4-44.1c-0.8-4.3,1.3-6.8,3.3-8.1l-2-1.1c6.8-4.1,12.4-7.7,16-9.8c-1.6,1.1-3.2,3.3-2.3,7.2
				c1.4,7,17.3,36.6,58.1,36.6S403,51.1,404,45C404.7,40,402.5,36.8,399.9,35.8z"/>
			<path fill="#FFFFFF" d="M586.1,209.2c2.6,6.3,4.2,10.5,4.2,11.6c0,6.4-25.3,12.7-36.6,19.7c-11.2,7-29.5,21.1-33.8,21.1
				c-1.4,0-5.5-4.2-10.6-9.8c0,0,11.2-10.3,35.2-23.9C568.5,214.4,586.1,209.2,586.1,209.2z"/>
			<path fill="#FFFFFF" d="M586.1,209.2c0,0-17.6,5.1-41.5,18.7c-23.9,13.6-35.2,23.9-35.2,23.9c-10.7-11.8-25.6-30.3-28.1-30.3
				c0,0,4.2-25.1,7-39.6c2.8-14.4,0.9-20.2,10.8-42.7s23.6-41.4,23.6-41.4C542,117,574.6,182.2,586.1,209.2z"/>
			<path fill="#FFFFFF" d="M522.8,97.9c0,0-13.9,18.9-23.6,41.4s-8,28.1-10.8,42.7s-7,39.6-7,39.6c-3.8,0-12.7,54.8-12.7,97.8
				s4.9,84.4,8.4,147c2.1,37.6,2.6,61.5,2.2,75.2c-0.8,0.2-40.2,10.3-141.8,10.3s-141.2-9.6-141.9-9.8c-0.1-12.8,0.7-34.4,2.4-67.2
				c2.8-54.8,5.6-175.1,5.6-197.6s-6.4-53.9-9.2-53.4l-0.5-1.9c0,0-1.4-61.9-6.6-86.2s-18.7-40.2-18.7-40.2c0.4-0.4,0.8-0.7,1.1-1
				c22.5-20.4,35.2-18.9,60.5-28.1c15.5-5.5,31.8-14.8,44.3-22.3l2,1.1c-2,1.3-4,3.8-3.3,8.1c1.4,7.5,24.4,44.1,76.4,44.1
				s68.4-38,69.4-43.1s-6.1-10.3-6.1-10.3l0.8-1.5c8.8,5.2,18.9,12.4,31,17C465.1,66.9,499.2,74.3,522.8,97.9z"/>
			<path fill="#FFFFFF" d="M479.3,541.5c-0.3,9.1-1.1,13.7-2.2,14.8c-4.7,4.7-32.3,13.3-135.7,13.3c-103.3,0-139.8-6.2-144.1-12.7
				c-1.1-1.7-1.7-6.4-1.8-15c0.8,0.2,40.3,9.8,141.9,9.8S478.4,541.8,479.3,541.5z"/>
			<path fill="#FFFFFF" d="M194,221.9l0.5,1.9c-1.9,0.3-15.8,16.4-27.2,27.4l-1.5-1.1c-16.4-10.8-26.4-21.8-36.8-27.5
				s-36.8-18-36.8-18h-1.9c17-28.7,60-91.6,78.4-109.1c0,0,13.5,15.8,18.7,40.2S194,221.9,194,221.9z"/>
			<path fill="#FFFFFF" d="M165.9,250l1.5,1.1c-5.5,5.3-10.4,9.5-12.9,9.9c-7.7,1.4-18.3-6.4-35.2-18.9
				c-16.9-12.7-33.8-19-35.8-23.2c-0.5-0.9,2.3-6.3,7-14.3h1.9c0,0,26.4,12.4,36.8,18C139.3,228.2,149.4,239.2,165.9,250z"/>
		</g>
		<g>
			<path fill="none" stroke="#E1E0D2" stroke-width="3" d="M291.7,33.5c-0.4,0.2-0.8,0.4-1.1,0.7c-1.6,1.1-3.2,3.3-2.3,7.2
				c1.4,7,17.3,36.6,58.1,36.6S403,51.2,404,45.1c0.8-5.2-1.5-8.3-4.1-9.3"/>
			<path fill="none" stroke="#E1E0D2" stroke-width="3" d="M292.9,33L292.9,33L292.9,33c-0.3,0.1-0.7,0.2-1.1,0.4"/>
			<path fill="none" stroke="#E1E0D2" stroke-width="3" d="M194,221.9c0,0-1.4-61.9-6.6-86.2s-18.7-40.2-18.7-40.2"/>
			<path fill="none" stroke="#E1E0D2" stroke-width="3" d="M481.3,221.6c0,0,4.2-25.1,7-39.6c2.8-14.4,0.9-20.2,10.8-42.7
				S522.8,98,522.8,98"/>
			<path fill="none" stroke="#E1E0D2" stroke-width="3" d="M279.3,43.8c0,0-1.4,0.4-2.8,1.3c-2,1.3-4,3.8-3.3,8.1
				c1.4,7.5,24.4,44.1,76.4,44.1s68.4-38,69.4-43.1s-6.1-10.3-6.1-10.3"/>
			<path fill="none" stroke="#E1E0D2" stroke-width="3" d="M92.3,204.6c0,0,26.4,12.4,36.8,18s20.3,16.7,36.8,27.5"/>
			<path fill="none" stroke="#E1E0D2" stroke-width="3" d="M509.4,251.9c0,0,11.2-10.3,35.2-23.9s41.5-18.7,41.5-18.7"/>
			<path fill="none" stroke="#E1E0D2" stroke-width="3" d="M195.5,542.1L195.5,542.1c0.8,0.2,40.3,9.8,141.9,9.8
				s141.1-10.1,141.8-10.3l0,0"/>
		</g>
	</g>
	<g>
		<g>
			<g>
				<path fill="#BF3F4F" d="M299.6,214.8l6.6,23.7c-1.5,1-3.5,1.2-5.8,0.8l-1.2-4.4l-6.1,0.8l-1.5,4.5c-2.4,0.3-4.3,0-5.4-1
					l8.6-24.1C296.4,213.8,298.1,213.8,299.6,214.8z M296.8,222.6l-2.6,8.1l4-0.5L296.8,222.6z"/>
				<path fill="#BF3F4F" d="M312,215.2c5.4-0.5,9.3-0.6,11.4-0.2c2.2,0.4,3.6,1.4,4.1,3c0.6,1.6,0.6,3.8,0.1,6.7
					c-0.6,2.8-2.5,4.6-6.1,5.5l5.8,7.5c-1,2.2-2.9,2.8-5.4,2.1l-5.8-8.3l-2,0.2l-0.7,7.8c-2.3,0.8-4,0.6-5.3-0.6l2.1-22.5L312,215.2
					z M315.5,219.8l-0.7,6.8c4.5-0.3,7-1.1,7.6-2.4c0.6-1.3,0.6-2.4,0.1-3.6C321.9,219.7,319.6,219.4,315.5,219.8z"/>
				<path fill="#BF3F4F" d="M336.5,215.2l7.9,13.3l0.7-12.9c1.7-0.8,3.3-0.8,4.9,0l-1.4,23.4c-1.1,1-2.6,1.1-4.6,0.4l-7.3-13.4
					l-0.9,13.5c-2.3,0.6-4.1,0.5-5.3-0.4l1.4-23.2C332.5,214.9,334.1,214.7,336.5,215.2z"/>
				<path fill="#BF3F4F" d="M354.9,215.1c1.7-0.4,3.5-0.3,5.4,0.3l-2,24.2c-2.3,0.7-4.1,0.6-5.7-0.3L354.9,215.1z"/>
				<path fill="#BF3F4F" d="M384,215.1l-9.4,24.2c-2,0.9-3.8,0.9-5.6,0l-6-24.3c2.1-0.4,4.1-0.4,6.2,0l3.1,17.3l5.3-17.3
					C379.8,214.8,381.9,214.8,384,215.1z"/>
				<path fill="#BF3F4F" d="M394.9,214.9c3,0,5.4,1.2,7.2,3.6s2.5,5.3,2.2,9c-0.3,3.7-1.5,6.6-3.7,8.9c-2.1,2.3-4.7,3.6-7.7,3.6
					c-3,0-5.5-1.1-7.5-3.5c-2-2.2-2.7-5.3-2.4-8.8c0.3-3.6,1.6-6.6,3.9-9.1C389.3,216.1,391.9,214.9,394.9,214.9z M394.4,221.1
					c-1.5,0-2.7,0.6-3.9,1.8c-1.1,1.2-1.9,2.7-2.1,4.7c-0.2,2,0.2,3.6,1.2,4.9c1,1.3,2.3,1.9,3.8,1.8c1.5-0.1,2.7-0.8,3.8-2
					s1.6-2.7,1.8-4.6c0.2-1.9-0.2-3.4-1-4.7C397,221.7,395.9,221.1,394.4,221.1z"/>
				<path fill="#BF3F4F" d="M408.9,215.2c5.4-0.5,9.3-0.6,11.4-0.2c2.2,0.4,3.6,1.4,4.1,3c0.6,1.6,0.6,3.8,0.1,6.7
					c-0.6,2.8-2.5,4.6-6.1,5.5l5.8,7.5c-1,2.2-2.9,2.8-5.4,2.1l-5.8-8.3l-2,0.2l-0.8,7.8c-2.2,0.8-4,0.6-5.3-0.6l2.1-22.5
					L408.9,215.2z M412.3,219.8l-0.8,6.8c4.5-0.3,7-1.1,7.6-2.4c0.6-1.3,0.6-2.4,0.1-3.6C418.8,219.7,416.4,219.4,412.3,219.8z"/>
				<path fill="#BF3F4F" d="M444.7,214.9c0.6,1.7,0.5,3.4-0.3,4.9l-10.8,0.4l-0.3,4.2l8.8-0.2c0.8,1.6,0.8,3.1-0.2,4.5l-9,0.4
					l-0.5,5.1l11.1-0.3c0.9,2,0.8,3.8-0.4,5.4l-15.4,0.6c-0.5-0.1-0.8-0.5-0.8-1l1.5-22.6c0.1-0.5,0.4-0.8,0.8-0.9L444.7,214.9z"/>
			</g>
			<g>
				<path fill="#353959" d="M282.6,233.6c-1.5,0.2-8.4-0.8-9.8-8.6c-0.9-5.8,6.5-9.8,10.7-11.6l-3.3-0.9l-23.2,3.7l-6.3,10.7
					l16.5,9.6L282.6,233.6z"/>
				<g>
					<polygon fill="#FFFFFF" points="284.1,213.3 281.8,219.2 278.4,215.5 276.6,219.5 272.8,216.7 271,219.8 267.4,217.9 
						265.8,221.2 261.8,219.5 265.3,216 277.5,213.6 					"/>
					<path fill="#353959" d="M284.1,213.3l-2.2,5.9l-3.4-3.6l-2,3.9l-3.8-2.8L271,220l-3.7-2l-1.6,3.2l-4-1.8l3.6-3.6l12.2-2.3
						L284.1,213.3 M285,212.5l-1,0.1l-6.6,0.4l0,0l0,0l-12.2,2.3H265l-0.2,0.2l-3.6,3.6l-0.7,0.7l0.9,0.4l4,1.8l0.6,0.3l0.3-0.6
						l1.3-2.7l3.1,1.6l0.6,0.3l0.3-0.6l1.3-2.5l3.1,2.3l0.7,0.5l0.4-0.8l1.5-3.1l2.7,2.9l0.7,0.8l0.4-1l2.3-5.9L285,212.5L285,212.5
						z"/>
				</g>
				<g>
					<polygon fill="#FFFFFF" points="261.6,231.3 266.4,230.2 268,233.5 271.2,230.6 273.4,233.6 276.4,230 278.6,232.7 
						281.6,228.3 284.1,232.2 272.7,241.7 					"/>
					<path fill="#353959" d="M281.6,228.3l2.3,3.8l-11.3,9.6l-11.2-10.4l4.9-1.2l1.6,3.5l3.2-2.9l2.2,3l3-3.8l2.2,2.7L281.6,228.3
						 M281.7,227.2l-0.6,0.8l-2.5,3.6l-1.7-2.1l-0.6-0.7l-0.6,0.7l-2.4,3.1l-1.6-2.3l-0.5-0.7l-0.6,0.5l-2.5,2.2l-1.2-2.6l-0.2-0.5
						l-0.6,0.1l-4.9,1.2l-1.2,0.3l0.9,0.8l11.2,10.4l0.5,0.4l0.5-0.4l11.3-9.6l0.5-0.4l-0.3-0.5l-2.3-3.8L281.7,227.2L281.7,227.2z"
						/>
				</g>
				<path fill="#BF3F4F" d="M271.9,233.2c-5.6,0.3-10.5-3.3-11.1-6.9c-1.6-11.2,20.2-8.1,24.6-12.2c2.4-2.3-7.1-12.2-20.2-10.4
					c-12.2,1.7-23,12.6-19.8,24.5c2.9,11.1,12.4,15.8,23.5,15.8c12.1,0,18.8-11,16.6-12.4C282.9,229.9,277.9,232.8,271.9,233.2z"/>
				<g>
					
						<ellipse transform="matrix(-0.8319 0.555 -0.555 -0.8319 604.95 237.4226)" fill="#FFFFFF" cx="266.5" cy="210.3" rx="2.5" ry="3.1"/>
					
						<ellipse transform="matrix(0.8319 -0.555 0.555 0.8319 -72.1872 183.76)" fill="#353959" cx="267.2" cy="211" rx="1.6" ry="1.8"/>
				</g>
				<g>
					
						<ellipse transform="matrix(-0.8319 0.555 -0.555 -0.8319 619.1982 229.5877)" fill="#FFFFFF" cx="274.8" cy="208.6" rx="2.5" ry="3.1"/>
					
						<ellipse transform="matrix(0.8319 -0.555 0.555 0.8319 -69.8046 188.109)" fill="#353959" cx="275.6" cy="209.3" rx="1.6" ry="1.8"/>
				</g>
			</g>
		</g>
		<g>
			<path fill="#353959" d="M294.9,180.2c5.2-0.5,8.8-0.6,10.9-0.2c2.1,0.4,3.4,1.3,3.9,2.9c0.6,1.6,0.6,3.8,0,6.7
				c-0.6,2.9-2.4,4.8-5.8,5.5l-5.1,1.2l-1.9,0.2l-0.8,6.8c-2.2,0.8-3.8,0.6-5.2-0.5l2-21.5L294.9,180.2z M298.1,184.6l-0.7,7.1
				c4.3-0.3,6.8-1.2,7.3-2.6c0.6-1.5,0.6-2.7,0.1-3.8C304.3,184.4,302.1,184.1,298.1,184.6z"/>
			<path fill="#353959" d="M315.3,186.7l4.4,15.8c-1,0.7-2.3,0.8-3.9,0.6l-0.8-2.9l-4,0.5l-1,3c-1.6,0.2-2.8,0-3.7-0.7l5.7-16
				C313.1,186.1,314.3,186,315.3,186.7z M313.4,191.9l-1.7,5.4l2.7-0.3L313.4,191.9z"/>
			<path fill="#353959" d="M323.3,187c3.7-0.4,6.2-0.4,7.6-0.2c1.5,0.3,2.3,0.9,2.7,2c0.4,1,0.4,2.5,0,4.4s-1.7,3.1-4,3.7l3.8,5.1
				c-0.8,1.4-2,1.9-3.6,1.4l-3.8-5.6l-1.3,0.1l-0.5,5.2c-1.5,0.6-2.7,0.4-3.6-0.4l1.4-15L323.3,187z M325.6,190l-0.5,4.5
				c3-0.2,4.7-0.8,5.1-1.6c0.4-0.8,0.4-1.7,0.1-2.3C329.9,189.9,328.4,189.8,325.6,190z"/>
			<path fill="#353959" d="M347.3,186.8c0.5,1.2,0.5,2.3-0.1,3.6l-4,0.1l-0.6,12.8c-1.1,0.5-2.3,0.5-3.7,0l0.8-12.6l-4,0.1
				c-0.8-1.4-0.8-2.5-0.1-3.5L347.3,186.8z"/>
			<path fill="#353959" d="M347.4,197.2c-0.2-1.4,0-2.8,0.5-4.3h8.9c0.1,1.5,0,2.9-0.5,4.3H347.4z"/>
			<path fill="#353959" d="M373.1,179.9c0.8,1.7,0.7,3.4-0.1,5.1l-5.8,0.1l-0.8,18.3c-1.6,0.7-3.3,0.7-5.2,0l1-18l-5.7,0.1
				c-1.1-2-1.2-3.7-0.2-5L373.1,179.9z"/>
			<path fill="#353959" d="M370.1,186.9c1.1-0.3,2.3-0.2,3.6,0.2l-1.3,16.1c-1.5,0.5-2.7,0.4-3.8-0.2L370.1,186.9z"/>
			<path fill="#353959" d="M379.8,187l2.5,9.2l4.5-9.2c1-0.3,2.1-0.3,3.1,0l-1,16.3h-3.6l0.5-7.8l-3.4,7.6c-0.6,0.3-1,0.2-1.5-0.3
				l-1.8-7.4l-0.6,7.9H375l1.1-16.3C377.1,186.6,378.2,186.6,379.8,187z"/>
			<path fill="#353959" d="M402.9,186.8c0.4,1.1,0.3,2.2-0.2,3.2l-7.2,0.2l-0.2,2.8l5.9-0.1c0.6,1,0.5,2.1-0.1,3l-6,0.3l-0.3,3.4
				l7.4-0.2c0.6,1.3,0.6,2.5-0.3,3.7l-10.3,0.4c-0.3-0.1-0.5-0.3-0.6-0.7l1-15c0.1-0.3,0.3-0.5,0.5-0.6L402.9,186.8z"/>
		</g>
	</g>
</g>
</svg>
