<?xml version="1.0" encoding="utf-8"?>
<!-- Generator: Adobe Illustrator 17.1.0, SVG Export Plug-In . SVG Version: 6.00 Build 0)  -->
<!DOCTYPE svg PUBLIC "-//W3C//DTD SVG 1.1//EN" "http://www.w3.org/Graphics/SVG/1.1/DTD/svg11.dtd">
<svg version="1.1"
	 id="svg2" xmlns:sodipodi="http://sodipodi.sourceforge.net/DTD/sodipodi-0.dtd" xmlns:inkscape="http://www.inkscape.org/namespaces/inkscape" xmlns:cc="http://creativecommons.org/ns#" xmlns:dc="http://purl.org/dc/elements/1.1/" xmlns:svg="http://www.w3.org/2000/svg" xmlns:rdf="http://www.w3.org/1999/02/22-rdf-syntax-ns#" inkscape:version="0.48.2 r9819" sodipodi:docname="Twitter bird.svg"
	 xmlns="http://www.w3.org/2000/svg" xmlns:xlink="http://www.w3.org/1999/xlink" x="0px" y="0px" viewBox="0 0 32 32"
	 enable-background="new 0 0 32 32" xml:space="preserve">
<sodipodi:namedview  id="base" borderopacity="1.0" showgrid="false" inkscape:zoom="0.49497475" fit-margin-top="0" fit-margin-left="0" bordercolor="#666666" inkscape:cy="293.32818" inkscape:cx="-261.61877" pagecolor="#ffffff" inkscape:window-x="-4" inkscape:current-layer="layer1" inkscape:pageopacity="0.0" inkscape:window-y="-4" inkscape:pageshadow="2" inkscape:window-width="1280" inkscape:document-units="px" fit-margin-right="0" inkscape:window-height="744" inkscape:window-maximized="1" fit-margin-bottom="0">
	</sodipodi:namedview>
<path fill="#E2E0D2" d="M15.9,3.7c-5.5,0-10.4,3.8-11.7,9.1C2.8,18.6,5.7,24.6,11,26.9c0-2,0.4-3.8,0.9-5.7c0.3-1,0.4-1.9,0.6-2.8
	c0.1-0.4,0.2-0.7,0.1-1.2c-0.2-0.4-0.3-1.1-0.3-1.6c0-1.4,1-3.4,2.7-3.1c2,0.4,1.2,2.8,0.8,4.1c-0.4,1.3-1.3,3.2,0.3,4.1
	c1.4,0.8,3-0.3,3.7-1.4c1.5-2.4,2-6.9-0.9-8.6c-2.8-1.7-6.8-0.5-8.4,2.2c-0.6,1.2-0.9,2.6-0.4,3.9c0.1,0.4,0.3,0.7,0.4,1.1
	c0.3,0.4,0.4,0.5,0.4,1c-0.3,0.8-0.3,1.5-1.2,1c-1.3-0.5-1.9-2.2-2-3.7c-0.2-1.6,0.4-3.2,1.3-4.6c2-2.8,5.8-4.1,9.2-3.3
	c1.9,0.4,3.7,1.4,4.8,3.1c1.3,2,1.3,4.3,0.8,6.5c-0.4,2-1.6,4-3.6,4.9c-1.8,0.9-4.4,1.1-5.7-0.9c-0.4,2-0.9,4.1-2,5.9
	c5.8,1.6,12-1.3,14.4-6.8c2.3-5.2,0.5-11.5-4.1-14.8C20.9,4.5,18.4,3.7,15.9,3.7z"/>
</svg>
