<?xml version="1.0" encoding="utf-8"?>
<!-- Generator: Adobe Illustrator 17.1.0, SVG Export Plug-In . SVG Version: 6.00 Build 0)  -->
<!DOCTYPE svg PUBLIC "-//W3C//DTD SVG 1.1//EN" "http://www.w3.org/Graphics/SVG/1.1/DTD/svg11.dtd">
<svg version="1.1"
	 id="svg2" xmlns:svg="http://www.w3.org/2000/svg" xmlns:rdf="http://www.w3.org/1999/02/22-rdf-syntax-ns#" xmlns:dc="http://purl.org/dc/elements/1.1/" xmlns:inkscape="http://www.inkscape.org/namespaces/inkscape" xmlns:sodipodi="http://sodipodi.sourceforge.net/DTD/sodipodi-0.dtd" xmlns:cc="http://creativecommons.org/ns#" sodipodi:docname="Twitter bird.svg" inkscape:version="0.48.2 r9819"
	 xmlns="http://www.w3.org/2000/svg" xmlns:xlink="http://www.w3.org/1999/xlink" x="0px" y="0px" viewBox="0 0 36 36"
	 enable-background="new 0 0 36 36" xml:space="preserve">
<sodipodi:namedview  showgrid="false" borderopacity="1.0" inkscape:zoom="0.49497475" fit-margin-top="0" inkscape:cx="-261.61877" inkscape:cy="293.32818" pagecolor="#ffffff" fit-margin-left="0" bordercolor="#666666" inkscape:pageopacity="0.0" inkscape:pageshadow="2" inkscape:window-y="-4" inkscape:current-layer="layer1" inkscape:window-x="-4" fit-margin-bottom="0" inkscape:window-maximized="1" inkscape:window-height="744" fit-margin-right="0" inkscape:document-units="px" inkscape:window-width="1280" id="base">
	</sodipodi:namedview>
<path fill="#BF3F4F" d="M17.9,4.2c-6.2,0-11.7,4.3-13.2,10.2c-1.6,6.5,1.7,13.3,7.7,15.9c0-2.2,0.5-4.3,1-6.4
	c0.3-1.1,0.5-2.1,0.7-3.2c0.1-0.5,0.2-0.8,0.1-1.4c-0.2-0.5-0.3-1.2-0.3-1.8c0-1.6,1.1-3.8,3-3.5c2.2,0.5,1.4,3.2,0.9,4.6
	c-0.5,1.5-1.5,3.6,0.3,4.6c1.6,0.9,3.4-0.3,4.2-1.6c1.7-2.7,2.3-7.8-1-9.7c-3.2-1.9-7.7-0.6-9.4,2.5c-0.7,1.3-1,2.9-0.5,4.4
	c0.1,0.5,0.3,0.8,0.5,1.2c0.3,0.4,0.5,0.6,0.4,1.1C12,22,12,22.8,10.9,22.2c-1.5-0.6-2.1-2.5-2.3-4.2c-0.2-1.8,0.5-3.6,1.5-5.2
	c2.3-3.2,6.5-4.6,10.3-3.7c2.1,0.5,4.2,1.6,5.4,3.5c1.5,2.2,1.5,4.8,0.9,7.3c-0.5,2.3-1.8,4.5-4,5.5c-2,1-5,1.2-6.4-1
	c-0.5,2.3-1,4.6-2.3,6.6c6.5,1.8,13.5-1.5,16.2-7.6c2.6-5.8,0.6-12.9-4.6-16.7C23.5,5.1,20.7,4.2,17.9,4.2z"/>
</svg>
