<?xml version="1.0" encoding="utf-8"?>
<!-- Generator: Adobe Illustrator 17.1.0, SVG Export Plug-In . SVG Version: 6.00 Build 0)  -->
<!DOCTYPE svg PUBLIC "-//W3C//DTD SVG 1.1//EN" "http://www.w3.org/Graphics/SVG/1.1/DTD/svg11.dtd">
<svg version="1.1" id="Layer_1" xmlns="http://www.w3.org/2000/svg" xmlns:xlink="http://www.w3.org/1999/xlink" x="0px" y="0px"
	 viewBox="0 0 600 600" enable-background="new 0 0 600 600" xml:space="preserve">
<g>
	<path fill="#E2E0D2" d="M300.3,3.8C137.2,3.8,4.5,136.5,4.5,299.7c0,163.1,132.7,295.8,295.8,295.8
		c163.1,0,295.8-132.7,295.8-295.8C596.2,136.5,463.5,3.8,300.3,3.8z M516.9,216.4c2.7-3,5.3,0.4,7.5,2.1c2.5,1.9,3,6.8,7.8,5.1
		c5-1.8-3.1-4.2,0.1-6.2c1.6-1,3.3-1.6,5-2.4c1.9,9.9,12.9,13,16.3,20.8c2.9,6.5-4.7,5.1-9.5,5.9c-8.2-5.1-17.7-5.4-27.5-3.2
		c-2.6,0.6-7,0.9-6.9-3.1C509.9,228.3,512.2,221.6,516.9,216.4z M173.2,66.1c2.2-0.2,4.5,0.3,8.8,0.6c-2.9,1.8-3.7,2.7-4.8,3
		c-2.7,0.7-5.7,1.7-7.6-1.5C170.8,67.4,172,66.2,173.2,66.1z M167.6,77.1c0.3,0.9,0.8,1.7,0.7,2.5c-0.1,0.8-0.7,1.5-1.1,2.2
		c-0.3-0.8-0.7-1.6-0.7-2.4C166.5,78.6,167.1,77.9,167.6,77.1z M152.3,61.1c13.5,9.7,13.4,10.1,4.9,17.2
		c-2.8,12.7,2.5,17.1,14.9,15.3c4.8-0.7,9.8-0.4,14.7-0.5c0.3,0.9,0.6,1.9,1,2.8c-0.6,2.6-1,5.1,2.3,6.2c3.7,6.4,2,15.5-1.9,17.6
		c-12,6.5-11.4,18.8-15.6,28.5c-4.8,10.9,2.5,26.1-12.1,33.8c-0.2,0.1,0,1-0.2,1.4c-1.5,3.5,3.9,10.5-3.5,10.2
		c-4.4-0.2-6-6.3-5.2-11.5c0.2-1.2-0.5-3.5-1-3.6c-13.1-1.4-20.3-13.3-31.7-17.4c6.5-15.1,16.6-25.3,34.1-27
		c3.1-0.3,14-3.5,2.6-10.3c-2.5-1.5-2.6-5.1-1.9-9c3-15-13.3-22.4-15.8-35.8c-0.4-2.2-5.8,2.7-7.4,6c-0.9,1.8-7.8,3.9-0.5,6
		c7.2,2.1,7.9,8.2,9.3,13.7c0.4,1.6-2.2,5.5-3.7,5.6c-4.7,0.3-0.3-3.6-1.6-4.8c-4.2-4-5.1-0.7-6,2.8c-1,3.9-3.4,9.2-6.8,8
		c-4.2-1.5,0-6.4,0.3-9.8c0.4-6.2,4.2-13.7-3.8-16.5c-0.9-0.3-2.5-0.1-4.2,0.2C125.6,79.4,138.5,69.7,152.3,61.1z M139.2,232.6
		c0.1-3.6,0.1-7.1,0.2-10.7c-2.1-3.9-3.1-4.4-3.7-3.5c0.6-0.9,1.6-0.4,3.7,3.5c3.1,3.6,11.1-1.9,11.2,5.5
		C150.5,229,145.9,237.3,139.2,232.6z M172.8,549.8C81.9,503.3,19.5,408.6,19.5,299.7c0-1,0-2,0-3c1.2,0.2,2.6,0.9,4.3,2.1
		c13.4,9.8,19.2,25,29.2,37.1c2.3,0.6,4.1,1.6,5.2,3.3c-1.1-1.7-2.9-2.7-5.2-3.3c-1.1,5.1,1.2,7,6.1,6.6
		c3.8,9.8,13.4,10.2,21.2,10.8c8.1,0.6,14.1,2.6,18.1,9.6c4.9-0.3,9.9-1.1,13.3,3.9c3.1,4.7,20.6,10.5,32.7,13.3
		c-1.5,3-2.3,6.7-2.4,11.3c-0.1,4.9-0.9,9.5-4.4,13.7c-9.5,11.3-9.7,23.8-3.9,36.8c2.5,0.3,5.1,0.1,5.9,3.3c0,0,0.4,0.4,0.4,0.4
		c3.5,1.6,3.2,4.9,3.4,8c0,0,0.4,0.6,0.4,0.6c5.9,12.6,18,18.7,27.8,27.3c0.1,17.5-2,35,2.5,52.4
		C175.7,539.2,175.3,544.8,172.8,549.8z M500.8,294.8C500.8,294.8,500.8,294.8,500.8,294.8c1-0.2,2.2-0.2,3.4-0.1
		C503,294.6,501.9,294.6,500.8,294.8z M528.5,278.7c-1.6,10.5-9.7,8.8-16.1,10.8c-10.9-4.8-21.7-19.6-33.2-0.5
		c-0.4,0.6-2.8-0.2-4.3,0c-14.6,1.3-21.8-8.3-23.2-19.9c-1.2-10-5.2-9.2-12.6-10.2c-16.6-2.3-30.6,9.7-47,6.9
		c-4.1-0.7-3.3,4.1-5,6.2c-8.1,10.7-12.7,24.1-24.6,31.8c-5.7,16.3-9.3,32.6-10,50.2c-1,24.3,15.3,44.1,38.9,45.8
		c9.1,0.6,17.1-3.5,25.7-2.2c10.9,1.7,20.9,4.8,22,18.3c-3.8,7.8-1,14.2,3.2,21c7.4,12,8,24.4,0.2,36.7c-3.4,5.3-5.5,11.1-3.8,17.5
		c4.4,16.9-2.2,34.4,2.7,51.3c-41.5,24.2-89.6,38.1-141,38.1c-33.6,0-65.9-5.9-95.8-16.8c2.1-4.3,5.1-7.9,9.5-11.5
		c12.4-10.4,30-19,26-40.5c18.2-4.1,29.6-14.7,32.7-33.5c2.8-5.6,5.5-11.2,8.3-16.8c9.8-19.4,2.2-34.1-19.6-38.2
		c-5.6-1-11.1-2.6-16.7-3.5c-5.4-0.8-9.4-3.8-10.5-8.7c-5.7-24.5-31-23.6-46.6-35.1c-4.2-3.1-14.3-4.3-22.1-4.9
		c-8.4-0.6-14.5,1-18.4,5.1c-6.9-3.9-20.5-15.5-24.6-21.7c-8-12.1-10.4-16.9-10.6-24c-2.7,0.9-7.1,1-7.9,2.8
		c-6.5,14.5-16.3,11.8-27,5.9c1-7.8,2.1-15.7,3.1-23.5l0,0c6.2-3.5-1-15.1,4.9-14.4c13.8,1.7,25.3-6.8,38.5-5.6c2.7,2.6,5,1.8,7-0.9
		c8.6-12.5,28.5-16.6,27.4-36.4l-0.6,0.3c0,0,0.3-0.4,0.3-0.5c15.3-10.6,23.2-30.2,42.8-35.9c0.9-0.3,1.9-2.8,1.6-3.9
		c-4.9-18.1,8.6-20,20.2-21.6c9.3-1.4,3.4-11.1,9.9-14.3c2.9-1.4-2.9-8.1-5.2-8.8c-8.2-2.6-10.6-7.8-11.3-15.7
		c-0.5-6-3.2-11.6-11.6-8.3c-3.1,1.2-6.2,0.1-5.4-4.2c0.5-2.8-3.8-7.2-1.1-7.3c14.2-0.5,13.7-16,23.2-21.1c4.3-2.3,5.5-10.7,4-11
		c-7-1.2-9.5-8.9-16.1-9.8c6.8-12.4-3.7-16.9-10.8-21.6c-9.9-6.6-18.7-11.2-6.5-24.5c2.4-2.6,7.8-6.8,8.1-12.5
		c6.1-2.4,12.3-4.5,18.6-6.5c-0.8,1-1.5,2.2-2.2,3.4c3.5,10.6,10.5,16.5,21.9,17.5c6.7,0.6,14.4,4.5,12.7,11.2c-2.3,9,4.4,9,8,12.5
		c0.1,4.5-10.5,7.3-1.7,13.4c2.3,1.6-1.6,4.9-3.2,7.3c-12.1,17.4-7,33.3,12.9,40.7c6,2.2,10.2,4.1,12.9-5.3
		c4.1-14.3,9.8-27.5,27.1-33.1c9.2-3,20.9-8,23.2-20.9c6.8-2.8,6.1-9.1,6.8-14.7c3.9-13.4,6.3-27.1,7.8-40.9
		c45,7.1,86.4,24.9,121.7,50.7c-6.4,10.3-6.9,23.5-15.7,32.7c-6.4,6.6-12.5,13.6-19.4,19.7c-7.8,7-4.8,14.7-3.1,22.8
		c1.7,7.8,7.5,7.5,13.3,7.8c1.6-2.4,3-1.7,4.2,0.4c2.5,0,5.1,0,7.6,0c1.9,3.5-0.7,5.8-2.4,8.3c-1,0.5-2.1,0.9-3.1,1.4
		c1,0.5,2,1,3.1,1.5c5.4,0.8,9.4-1.3,12.1-6c14-14.2,1.4-31,3.3-46.5c0.7-5.5,4-4.6,5.1-7.1c1.5-3.3,5.7-3.2,8.9-1
		c3.3,2.3,4.3,5.8,2.3,9c-6.4,10.1-4.3,17.9,4.6,25.4c4.8,4,1.3,8.6-0.8,13c-2.4,5.1-3.9,10.7-5.8,16.1c0.1,1.1-0.2,2.3-0.6,3.4
		c0.4-1.1,0.7-2.3,0.6-3.4c-9,1.4-17.7,3.9-27.1,2.8c-5.3-0.6-9.1-0.5-6.1-7.1c-0.6-3.2-1.1-6.5-1.7-9.7c-1.2-2.1-2.6-2.8-4.2-0.4
		c-0.7,3.7-0.8,7.7-2.4,11c-3.6,7.9-7,16.5-16.8,17.6c-0.1,0.4-0.4,0.7-0.8,1c-1.5,1-1.6,3.2-2.6,4.6c-0.3,0.4-0.6,0.8-0.9,1.1
		c1.1,3.6-4,3.3-5.9,4.5c-6.6,4.1-14.7,6.4-6.8,16.9c3.5,4.6,0.7,10.2-5.4,10.8c-5.1,0.5-7.6,4.2-11.4,6.2
		c-10.7,5.7-4.5,15.8-5.4,23.9c-0.4,3.4,1.6,8.5,6.4,8.3c7.3-0.3,14.1-1.1,18.4-9.7c3.8-7.6,10.9-13.6,16.9-20
		c9.9-10.5,18.8-9.7,27.5,1.1c3.6,4.5,8.9,7.5,13.3,11.4c2.6,2.3,5.6,1.6,5.1-1.2c-2.2-13.5,3-5.9,7.5-3.1c6.2,3.8,12,18.4,19.9,1.5
		c0.3-0.6,1.8-0.6,2.8-0.8c0.2-2.8,0.4-5.5,0.4-8.2c0,2.7-0.2,5.4-0.4,8.2c5.9,7.3,8.8,17,18.2,21.5
		C525.2,265.5,529.8,269.7,528.5,278.7z M533.5,456c-0.1,0-0.1-0.1-0.1-0.2c-6-12.8,3.8-19.5,10.6-27.4c2.6-3,4.9-5.2,7.5-3.3
		C546.2,435.8,540.2,446.1,533.5,456z M562.6,368.7c-3.2-0.1-5.9,0.5-8.9-2.9c-6.3-7.2-9.5-16.2-12-24.5
		c-3.1-10.1-5.6-20.4-9.8-30.3c-1-2.3-2.1-4.8,0.5-6.6c2.2-1.5,5.6-1.1,6.6,1c9,19.8,17.7,39.9,27,61.1
		C566,367.4,564.8,368.8,562.6,368.7z"/>
	<path fill="#E2E0D2" d="M396.7,183.2c0.4-2.8-1.5-2.6-2.5-5.5c-0.9-2.5,1.7-6.6-0.8-6c-6.4,1.6-5,2.8-4.5,8.3
		C389.4,186,396.6,183.3,396.7,183.2z"/>
	<path fill="#E2E0D2" d="M394.5,167.8c3.5,1.7,7.1,4.4,7.9,8.3c0.5,2.6-4.6-1.5-4,1.1c0.5,2.2-0.8,5.8,0.4,7.1c1,1,3.8,0.9,4.1,1.2
		c1.5,1.6-8.9,3.3-8.5,5.2c0.4,1.7,12.9-0.3,14.8,0c1.2-0.2,2.7-0.6,4.1-1c1.2-0.8,2.2-1.8,2.7-3.3c0.5-1.5,1.2-2.7,2.2-3.6
		c-3.5-10.9-15.3-18-15-31c0-1.5-4.8-4.6-7-4.2c-3.5,0.6-4.5,4.9-4.5,8.2C391.8,159.8,394.7,163.7,394.5,167.8z"/>
	<path fill="#E2E0D2" d="M157.1,78.5c0.1,0,0.1-0.1,0.2-0.1c0,0,0,0,0,0L157.1,78.5z"/>
	<path fill="#E2E0D2" d="M147.9,328.4c-3-0.6-5.9-1.2-8.9-1.8c-0.5,0.3-0.9,0.6-1.3,1c4.8,5.6,9.7,11,18.3,8.7
		C155.5,331.3,149.7,331.9,147.9,328.4z"/>
	<path fill="#E2E0D2" d="M163.1,340.3c0.5,3.1,3.3,2.8,6.7,2.6c1-0.5,2.9-1.4,4.8-2.4c-2.3-1.4-4.5-3.3-7.1-4
		C165,335.9,162.6,337.2,163.1,340.3z"/>
	<path fill="#E2E0D2" d="M447,165.7c0,0.1,0,0.1-0.1,0.2c0,0,0,0.1,0,0.1L447,165.7z"/>
	<path fill="#E2E0D2" d="M336.3,108.9c-2.7,7.9,7.5,9.8,12.4,9.7c7.1-0.2,14.2-4.1,22.9-6.9c-6.1-5-10.4-11.3-15.6-12.1
		C348.6,98.6,338.7,101.9,336.3,108.9z"/>
	<path fill="#E2E0D2" d="M148,74.5c-2,1.2-4.7,3.6-2.6,5.7c4.1,4.1,7.5-2.4,11.6-1.9C156.1,72.3,152.8,71.5,148,74.5z"/>
	<path fill="#E2E0D2" d="M157.1,78.5c0,0,0.2-0.2,0.2-0.2c-0.1,0-0.1,0-0.2,0C157.1,78.3,157.1,78.4,157.1,78.5z"/>
	<path fill="#E2E0D2" d="M148.9,69.1c0.6-0.5,1.3-1.1,1.4-1.7c0.1-0.4-0.9-1-1.5-1.5c-0.4,0.9-0.8,1.7-1.1,2.6
		C147.7,68.6,148.8,69.2,148.9,69.1z"/>
	<path fill="#E2E0D2" d="M447,166c0.1-0.1,0.2-0.1,0.4-0.2c-0.1,0-0.2-0.1-0.3-0.1C447,165.7,447,166,447,166z"/>
</g>
</svg>
