<?xml version="1.0" encoding="utf-8"?>
<!-- Generator: Adobe Illustrator 17.1.0, SVG Export Plug-In . SVG Version: 6.00 Build 0)  -->
<!DOCTYPE svg PUBLIC "-//W3C//DTD SVG 1.1//EN" "http://www.w3.org/Graphics/SVG/1.1/DTD/svg11.dtd">
<svg version="1.1" id="Layer_1" xmlns="http://www.w3.org/2000/svg" xmlns:xlink="http://www.w3.org/1999/xlink" x="0px" y="0px"
	 viewBox="0 0 300 300" enable-background="new 0 0 300 300" xml:space="preserve">
<polygon fill="#353959" stroke="#BF3F4F" stroke-width="5" stroke-miterlimit="10" points="393.7,205.6 345.5,-5.9 150,150 "/>
<polygon fill="#353959" stroke="#BF3F4F" stroke-width="5" stroke-miterlimit="10" points="258.5,375.3 393.7,205.6 150,150 "/>
<polygon fill="#353959" stroke="#BF3F4F" stroke-width="5" stroke-miterlimit="10" points="41.5,375.2 258.5,375.3 150,150 "/>
<polygon fill="#353959" stroke="#BF3F4F" stroke-width="5" stroke-miterlimit="10" points="-93.7,205.6 41.5,375.2 150,150 "/>
<polygon fill="#353959" stroke="#BF3F4F" stroke-width="5" stroke-miterlimit="10" points="-45.4,-5.9 -93.7,205.6 150,150 "/>
<polygon fill="#353959" stroke="#BF3F4F" stroke-width="5" stroke-miterlimit="10" points="170,-100 -45.4,-5.9 150,150 "/>
<polygon fill="#353959" stroke="#BF3F4F" stroke-width="5" stroke-miterlimit="10" points="344,-5.9 148.5,-100 148.5,150 "/>
<path fill="#353959" stroke="#353959" stroke-width="5" stroke-miterlimit="10" d="M150,150"/>
<circle fill="#E2E0D2" cx="150" cy="150" r="105"/>
<g>
	<path fill="#353959" d="M195.9,179.1c-4.3,0.5-24.7-2.5-28.5-25.2c-2.8-16.8,18.8-28.8,31.1-34.1L189,117l-68,10.8l-18.4,31.1
		l48.3,27.9L195.9,179.1z"/>
	<g>
		<polygon fill="#FFFFFF" points="200.1,119.6 193.6,136.8 183.8,126.3 178.2,137.8 167.2,129.4 162.2,138.9 151.5,133.1 146.9,143 
			135.1,137.9 145.4,127.5 181.1,120.6 		"/>
		<path fill="#353959" d="M200.1,119.6l-6.5,17.2l-9.8-10.5l-5.6,11.5l-11-8.4l-5,9.5l-10.8-5.8l-4.6,9.9l-11.8-5.1l10.4-10.3
			l35.6-7L200.1,119.6 M203,117.4l-3.1,0.2l-19,1h-0.1h-0.1l-35.6,7l-0.6,0.1l-0.4,0.4l-10.4,10.3l-2.1,2.1l2.7,1.2l11.8,5.1
			l1.8,0.8l0.8-1.8l3.7-8l8.9,4.8l1.8,1l0.9-1.8l3.9-7.4l9.1,7l1.9,1.5l1.1-2.2l4.3-8.9l7.8,8.4l2.2,2.4l1.1-3l6.5-17.2L203,117.4
			L203,117.4z"/>
	</g>
	<g>
		<polygon fill="#FFFFFF" points="134.5,172.3 148.9,168.8 153.5,178.9 162.8,170.4 169,179.2 177.8,168.3 184.2,176.2 193.1,163.6 
			200.1,174.9 167,202.7 		"/>
		<path fill="#353959" d="M193.1,163.6l7,11.3L167,202.7l-32.5-30.4l14.4-3.5l4.6,10l9.3-8.5l6.2,8.9l8.7-11l6.5,8L193.1,163.6
			 M193.3,160l-1.7,2.5l-7.4,10.5l-4.8-5.9l-1.6-1.9l-1.6,1.9l-7.1,8.9l-4.7-6.7l-1.3-1.9l-1.7,1.5l-7.3,6.7l-3.5-7.5l-0.7-1.5
			l-1.6,0.4l-14.4,3.5l-3.6,0.9l2.7,2.5l32.5,30.4l1.3,1.2l1.4-1.1l33.1-27.9l1.3-1.1l-0.9-1.5l-7-11.3L193.3,160L193.3,160z"/>
	</g>
	<path fill="#BF3F4F" d="M164.5,177.7c-16.4,0.9-30.7-9.5-32.2-20.2c-4.7-32.9,59.2-23.5,71.6-35.7c7.1-7-20.7-35.6-58.9-30.4
		c-35.6,4.8-67.1,36.7-57.9,71.4c8.6,32.2,36,46,68.6,46c35.4,0,54.8-32,48.5-36C196.8,168.1,182,176.7,164.5,177.7z"/>
	<g>
		<ellipse transform="matrix(0.8319 -0.555 0.555 0.8319 -36.6509 101.3648)" fill="#FFFFFF" cx="149" cy="111.2" rx="7.3" ry="9"/>
		
			<ellipse transform="matrix(-0.8319 0.555 -0.555 -0.8319 339.1456 123.1478)" fill="#353959" cx="150.9" cy="112.9" rx="4.7" ry="5.1"/>
	</g>
	<g>
		
			<ellipse transform="matrix(0.8319 -0.555 0.555 0.8319 -29.788 114.0178)" fill="#FFFFFF" cx="173.3" cy="106.2" rx="7.3" ry="9"/>
		
			<ellipse transform="matrix(-0.8319 0.555 -0.555 -0.8319 381.0623 100.0936)" fill="#353959" cx="175.4" cy="107.8" rx="4.7" ry="5.1"/>
	</g>
</g>
</svg>
